<svg xmlns="http://www.w3.org/2000/svg" xmlns:xlink="http://www.w3.org/1999/xlink" width="672.831" height="523.848" viewBox="0 0 672.831 523.848"><defs><style>.a,.s,.t,.u{fill:#fff;}.b{fill:#f8f8f8;}.c{fill:#91ad4e;}.d,.e{fill:#f4a93d;}.e{fill-rule:evenodd;}.f{fill:#444035;}.g{fill:#3a362d;}.h{fill:#efeeed;}.i{fill:#73873d;}.j{clip-path:url(#a);}.k{fill:#ffd5aa;}.l{fill:#232323;}.m{fill:#ffa412;}.n{fill:#f99c00;}.o{fill:#fec230;}.p{fill:#9f6b27;}.q{fill:#141414;}.r{fill:#b9c39e;}.s{font-size:32px;}.s,.t,.u{font-family:Calibri-Bold, Calibri;font-weight:700;}.t{font-size:27px;}.u{font-size:18px;}</style><clipPath id="a"><circle class="a" cx="29.403" cy="29.403" r="29.403"/></clipPath></defs><g transform="translate(-1004.616 -526.614)"><g transform="translate(1004.616 526.614)"><ellipse class="b" cx="331.916" cy="18.191" rx="331.916" ry="18.191" transform="translate(8.999 487.465)"/><path class="b" d="M198.729,679.255c-24.1-48.081-26.919-109.121-26.919-175.565,0-316.374,214.194-214.2,280.732-92.18,74.226,136.124,222.026-68.17,280.737,92.18,22.843,62.39-9.364,127.484-38.164,175.565Z" transform="translate(-162.806 -293.179)"/><path class="b" d="M407.33,620.6c0,126.262,102.357,228.619,228.619,228.619S864.562,746.883,864.562,620.6s-88-315.345-228.613-174.73C546.667,535.15,407.33,494.359,407.33,620.6Z" transform="translate(-268.059 -339.17)"/><path class="c" d="M1169.878,630.1h-3.557a1.9,1.9,0,0,1-1.82-1.316,14.773,14.773,0,0,0-.924-2.212,1.909,1.909,0,0,1,.348-2.212l2.522-2.522a1.925,1.925,0,0,0,0-2.721l-1.532-1.538a1.93,1.93,0,0,0-2.721,0l-2.522,2.522a1.9,1.9,0,0,1-2.213.354,13.682,13.682,0,0,0-2.212-.924,1.9,1.9,0,0,1-1.317-1.82v-3.562a1.925,1.925,0,0,0-1.925-1.925h-2.168a1.925,1.925,0,0,0-1.924,1.925v3.562a1.909,1.909,0,0,1-1.322,1.82,13.7,13.7,0,0,0-2.213.924,1.9,1.9,0,0,1-2.212-.354l-2.522-2.522a1.93,1.93,0,0,0-2.721,0l-1.532,1.538a1.924,1.924,0,0,0,0,2.721l2.522,2.522a1.907,1.907,0,0,1,.349,2.212,14.775,14.775,0,0,0-.924,2.212,1.9,1.9,0,0,1-1.814,1.316h-3.562A1.925,1.925,0,0,0,1130,632.01v2.168a1.925,1.925,0,0,0,1.925,1.925h3.562a1.9,1.9,0,0,1,1.814,1.316,14.822,14.822,0,0,0,.923,2.212,1.913,1.913,0,0,1-.348,2.212l-2.522,2.516a1.93,1.93,0,0,0,0,2.727l1.532,1.532a1.925,1.925,0,0,0,2.721,0l2.522-2.522a1.9,1.9,0,0,1,2.212-.348,14.169,14.169,0,0,0,2.213.918,1.914,1.914,0,0,1,1.322,1.82v3.562a1.925,1.925,0,0,0,1.925,1.925h2.168a1.925,1.925,0,0,0,1.925-1.925v-3.562a1.9,1.9,0,0,1,1.316-1.82,14.191,14.191,0,0,0,2.213-.918,1.9,1.9,0,0,1,2.212.348l2.522,2.522a1.925,1.925,0,0,0,2.721,0l1.532-1.532a1.931,1.931,0,0,0,0-2.727l-2.522-2.516a1.913,1.913,0,0,1-.349-2.212,14.75,14.75,0,0,0,.923-2.212,1.9,1.9,0,0,1,1.82-1.316h3.557a1.925,1.925,0,0,0,1.925-1.925V632.01A1.925,1.925,0,0,0,1169.878,630.1Zm-11.715,4.458a7.4,7.4,0,1,1-2.025-6.681A7.4,7.4,0,0,1,1158.164,634.554Z" transform="translate(-591.02 -435.758)"/><path class="d" d="M1140.4,514.312,1070.91,498.2l52.185,55.122,5.929-18.451,13.23-3.556-51.09-24.867,45.6,16.748,4.076-2.694,6.869-4.535Z" transform="translate(-564.612 -384.803)"/><path class="e" d="M1228.1,571.08l-1.023,1.836q-1.516-.863-3.064-1.659l.99-1.847Q1226.56,570.217,1228.1,571.08Z" transform="translate(-633.032 -416.626)"/><path class="e" d="M1214.869,564.11l3.153,1.6-.968,1.864-3.114-1.587Z" transform="translate(-628.532 -414.258)"/><path class="e" d="M1204.593,559.22l3.208,1.488-.9,1.9-3.169-1.471Z" transform="translate(-623.969 -412.072)"/><path class="e" d="M1253.12,588.9l1.189-1.726,2.9,2.047-1.239,1.7Z" transform="translate(-646.042 -424.563)"/><path class="e" d="M1244.767,580.88c.99.636,2,1.25,2.976,1.914l-1.156,1.753c-.962-.658-1.958-1.261-2.937-1.892Z" transform="translate(-641.809 -421.752)"/><path class="e" d="M1238.055,576.783l-1.106,1.792c-1-.608-2-1.195-3.009-1.775l1.051-1.82C1236.036,575.544,1237.054,576.164,1238.055,576.783Z" transform="translate(-637.47 -419.116)"/><path class="e" d="M1280.789,609.14c.813.879,1.659,1.72,2.439,2.627l-1.582,1.383c-.752-.874-1.576-1.693-2.356-2.544Z" transform="translate(-657.737 -434.382)"/><path class="e" d="M1275.081,603.625l-1.443,1.526c-.819-.819-1.7-1.571-2.578-2.334l1.377-1.587C1273.333,602.015,1274.235,602.762,1275.081,603.625Z" transform="translate(-654.059 -430.847)"/><path class="e" d="M1262.34,595.659l1.272-1.659c.957.7,1.864,1.46,2.766,2.212l-1.333,1.626C1264.165,597.092,1263.258,596.339,1262.34,595.659Z" transform="translate(-650.162 -427.616)"/><path class="e" d="M1297.35,639.172l2.013-.592c.321,1.189.553,2.412.78,3.634l-2.085.271C1297.87,641.379,1297.643,640.261,1297.35,639.172Z" transform="translate(-665.808 -447.538)"/><path class="e" d="M1293,628.673l1.836-1.023c.6,1.051,1.106,2.212,1.621,3.28l-1.936.807C1293.99,630.72,1293.553,629.663,1293,628.673Z" transform="translate(-663.864 -442.654)"/><path class="e" d="M1286.78,619.214l1.654-1.294,2.124,2.926-1.754,1.162Z" transform="translate(-661.084 -438.305)"/><path class="e" d="M1292,672.209c-.735.974-1.51,1.919-2.262,2.876l-1.588-1.377c.7-.9,1.432-1.781,2.118-2.688Z" transform="translate(-661.696 -462.036)"/><path class="e" d="M1295.878,661.24l1.98.691-.719,1.72a9.477,9.477,0,0,1-.8,1.659l-1.853-.99a8.445,8.445,0,0,0,.73-1.532Z" transform="translate(-664.53 -457.665)"/><path class="e" d="M1298.478,652.249l.144-1.659,2.1.028-.155,1.875a8.766,8.766,0,0,1-.271,1.853l-2.058-.409A7.679,7.679,0,0,0,1298.478,652.249Z" transform="translate(-666.206 -452.906)"/><path class="e" d="M1265.483,694.733c-1.034.6-2.041,1.245-3.12,1.748l-.974-1.853c1.051-.5,2.024-1.106,3.025-1.7Z" transform="translate(-649.737 -471.827)"/><path class="e" d="M1275.208,688.461l-2.953,2.046-1.145-1.759,2.843-1.969Z" transform="translate(-654.081 -469.079)"/><path class="e" d="M1282.62,679.49l1.477,1.493-1.283,1.283-1.388,1.15-1.355-1.609,1.333-1.1Z" transform="translate(-658.086 -465.821)"/><path class="e" d="M1233.948,708.675l-3.363,1.112-.625-2,3.313-1.1Z" transform="translate(-635.692 -477.976)"/><path class="e" d="M1244.717,704.752l-3.319,1.261-.719-1.969,3.258-1.244Z" transform="translate(-640.482 -476.238)"/><path class="e" d="M1255.212,700.172c-1.056.553-2.163.973-3.247,1.466l-.835-1.925c1.056-.481,2.146-.891,3.169-1.433Z" transform="translate(-645.152 -474.218)"/><path class="e" d="M1200.369,715.58l.437,2.052-3.463.7-.4-2.057Z" transform="translate(-620.935 -481.95)"/><path class="e" d="M1211.935,715.061c-1.139.3-2.29.553-3.44.813l-.464-2.046c1.106-.26,2.273-.5,3.4-.808Z" transform="translate(-625.891 -480.805)"/><path class="e" d="M1222.93,712.109c-1.134.332-2.262.669-3.407.946l-.553-2.024c1.106-.276,2.245-.614,3.363-.94Z" transform="translate(-630.78 -479.496)"/><path class="e" d="M1166.753,721.32l.277,2.08-3.49.459-.26-2.085Z" transform="translate(-605.892 -484.515)"/><path class="e" d="M1177.992,719.68l.326,2.074-3.49.531-.3-2.08Z" transform="translate(-610.92 -483.782)"/><path class="e" d="M1189.146,717.8l.382,2.063-3.474.6-.354-2.069Z" transform="translate(-615.912 -482.942)"/><path class="e" d="M1132.826,724.88l.16,2.091-3.512.254-.144-2.1Z" transform="translate(-590.72 -486.106)"/><path class="e" d="M1144.14,723.9l.2,2.091-3.507.31-.182-2.091Z" transform="translate(-595.779 -485.668)"/><path class="e" d="M1155.4,722.72l.238,2.085-3.5.382-.216-2.085Z" transform="translate(-600.815 -485.14)"/><path class="e" d="M1098.761,726.71l.061,2.1-3.518.094-.044-2.1Z" transform="translate(-575.494 -486.923)"/><path class="e" d="M1110.111,726.27l.094,2.1-3.518.144-.077-2.1Z" transform="translate(-580.567 -486.727)"/><path class="e" d="M1121.416,725.66l.127,2.1-3.512.2-.111-2.1Z" transform="translate(-585.621 -486.454)"/><path class="e" d="M1061.1,726.87l3.5.072-.033,2.1-3.529-.077Z" transform="translate(-560.201 -486.995)"/><path class="e" d="M1075.988,727.071l.005,2.1-3.523-.011.016-2.1Z" transform="translate(-565.31 -487.08)"/><path class="e" d="M1087.321,726.98l.033,2.1-3.518.044-.016-2.1Z" transform="translate(-570.382 -487.044)"/><path class="a" d="M712.616,379.991,722,385.123l-9.381,5.133-5.133,9.381-5.133-9.381-9.381-5.133,9.381-5.133,5.133-9.381Z" transform="translate(-395.711 -327.783)"/><path class="a" d="M760.407,413.327l5.432,2.97-5.432,2.97-2.976,5.431-2.97-5.431-5.431-2.97,5.431-2.97,2.97-5.437Z" transform="translate(-420.765 -344.443)"/><path class="a" d="M494.706,472.306l-9.386,5.127,9.386,5.133,5.127,9.38,5.133-9.38,9.381-5.133-9.381-5.127-5.133-9.386Z" transform="translate(-302.913 -369.036)"/><path class="a" d="M456.791,505.641l-5.431,2.97,5.431,2.976,2.97,5.431,2.97-5.431,5.431-2.976-5.431-2.97-2.97-5.431Z" transform="translate(-287.736 -385.701)"/><rect class="f" width="442.52" height="306.457" rx="25.29" transform="translate(75.648 165.428)"/><path class="g" d="M714.85,1172.946l-18.59-8.85a3.762,3.762,0,0,0-1.609-.365H619.434V1146.37H557.857v17.362H482.868a3.726,3.726,0,0,0-1.6.359l-18.805,8.85a3.75,3.75,0,0,0,1.593,7.141H713.24a3.75,3.75,0,0,0,1.609-7.135Z" transform="translate(-291.738 -674.469)"/><path class="h" d="M325.64,625.47v248.3h43.175l272.513-248.3Z" transform="translate(-231.552 -441.679)"/><path class="h" d="M707.1,625.47H628.258L335.85,873.768H735.842V625.47Z" transform="translate(-236.115 -441.679)"/><rect class="i" width="278.365" height="85.305" rx="23.56" transform="translate(209.277 264.405)"/><path class="a" d="M698.83,849.628v.874a2.292,2.292,0,0,0,2.035,2.478H842.177a2.3,2.3,0,0,0,2.035-2.478v-.874a2.292,2.292,0,0,0-2.035-2.478H700.865A2.292,2.292,0,0,0,698.83,849.628Z" transform="translate(-398.33 -540.748)"/><path class="a" d="M700.865,877.08H842.177a2.3,2.3,0,0,0,2.035-2.478v-.874a2.288,2.288,0,0,0-2.035-2.478H700.865a2.3,2.3,0,0,0-2.035,2.478v.874A2.292,2.292,0,0,0,700.865,877.08Z" transform="translate(-398.33 -551.518)"/><path class="a" d="M700.865,901.17h84.071a2.3,2.3,0,0,0,2.035-2.478v-.874a2.292,2.292,0,0,0-2.035-2.478H700.865a2.3,2.3,0,0,0-2.035,2.478v.874A2.288,2.288,0,0,0,700.865,901.17Z" transform="translate(-398.33 -562.284)"/><circle class="a" cx="29.403" cy="29.403" r="29.403" transform="translate(223.038 283.133)"/><g class="j" transform="translate(223.038 283.133)"><path class="k" d="M614.833,846.274a.616.616,0,0,0,0-.172c0-.293-.028-.586-.028-.885V841.9c-.26-5.642-14.2-6.139-14.2-6.139s-13.944.5-14.2,6.139v4.2a.958.958,0,0,0,0,.172q0,.393-.033.78l2.008,8.108a29.188,29.188,0,0,0,2.882,5.05,15.609,15.609,0,0,0,4.751,4.5,8.9,8.9,0,0,0,9.154,0,15.549,15.549,0,0,0,4.784-4.48,29.191,29.191,0,0,0,2.882-5.05l2.058-8.108Q614.86,846.667,614.833,846.274Z" transform="translate(-571.11 -818.791)"/><path class="l" d="M586.636,852.787l6.029.4a16.966,16.966,0,0,1-2.766-3.794,23.5,23.5,0,0,1-3.612-11.145c-.4-8.916,2.765-10.857,2.246-9.32s1.145,2.843,4.928,2.843,7.821-4.425,11.56-4.58,5.94,3.025,6.593,8.761a20.727,20.727,0,0,1-6.372,17.235l6.128-.382a2.307,2.307,0,0,0,2.013-3.086c-.968-2.716-.315-6.278.824-13.275,1.963-12.063-.42-24.5-15.188-23.6s-15.957,10.9-16.162,14.1c-.332,5.116,2.533,12.4,3.031,17.035a11.982,11.982,0,0,1-1.228,5.636,2.29,2.29,0,0,0,1.975,3.175Z" transform="translate(-569.529 -808.528)"/><rect class="k" width="12.572" height="15.188" transform="translate(23.136 44.657)"/><path class="m" d="M616.321,916.523c.066-9.132.138-15.686.138-15.686s-12.2-5.459-16.947-6.587v.315c.3.194.553.42.5.647-.194,1.233-6.82,3.175-7.052,3.247-.238-.072-6.864-2.013-7.058-3.247-.033-.227.2-.454.5-.647v-.315c-4.74,1.106-16.947,6.587-16.947,6.587l-.072,15.686Z" transform="translate(-563.522 -844.93)"/></g><path class="a" d="M602.34,874.44h11.139S607.13,882.814,602.34,874.44Z" transform="translate(-355.209 -552.944)"/><path class="c" d="M1140.372,1132.671a7.373,7.373,0,0,1,4.751,4.707,13.425,13.425,0,0,1,1.195,3.219l.459-22.517.813.05-.2,16.46c.21-2.024.409-3.424.553-4.425h0a4.4,4.4,0,0,1,.144-.769,3.735,3.735,0,0,1,.443-1.4,4.77,4.77,0,0,1,3.806-3.258c4.054-.492,9.491,1.886,9.491,1.886s-5.437,12.434-12.55,4.618c2.539-.553,7.744-2.063,10.26-4.154-3.794,2.633-9.065,3.025-11.062,3.075-1.073,4.679-.747,14.724-.481,19.912s.8,12.069.8,12.069h-3.429s1.543-11.477.476-19.22c-2.478-.465-12.124-2.605-18.064-8.584,3.551,4.22,12.55,9.126,16.593,10.769-14.1,10.719-20.21-12.235-20.21-12.235S1133.834,1130.624,1140.372,1132.671Z" transform="translate(-588.405 -661.826)"/><ellipse class="n" cx="24.818" cy="24.569" rx="24.818" ry="24.569" transform="translate(533.914 408.538)"/><ellipse class="o" cx="20.846" cy="20.636" rx="20.846" ry="20.636" transform="translate(537.885 412.47)"/><path class="c" d="M1278.246,1148.4a5.592,5.592,0,0,1,3.606,3.567,10.181,10.181,0,0,1,.9,2.445l.349-17.08.62.039-.16,12.484c.166-1.532.315-2.6.443-3.319h0a7.744,7.744,0,0,1,.448-1.621,3.606,3.606,0,0,1,2.887-2.467c3.075-.376,7.19,1.427,7.19,1.427s-4.121,9.43-9.519,3.5c1.925-.4,5.852-1.56,7.782-3.147-2.876,2-6.875,2.29-8.4,2.328-.813,3.551-.553,11.167-.365,15.094s.608,9.154.608,9.154h-2.6s1.167-8.706.36-14.574c-1.881-.354-9.2-1.974-13.706-6.516,2.693,3.2,9.519,6.925,12.572,8.169-10.7,8.131-15.327-9.281-15.327-9.281S1273.291,1146.843,1278.246,1148.4Z" transform="translate(-651.771 -670.429)"/><ellipse class="n" cx="18.822" cy="18.634" rx="18.822" ry="18.634" transform="translate(612.781 430.711)"/><ellipse class="o" cx="15.808" cy="15.653" rx="15.808" ry="15.653" transform="translate(615.795 433.693)"/><path class="c" d="M1231.385,978.321a9.557,9.557,0,0,0-6.162,6.084,17.514,17.514,0,0,0-1.549,4.17l-.592-29.176-1.051.066.266,21.322c-.277-2.616-.553-4.425-.752-5.7h0c-.039-.254-.1-.6-.194-.99a5.718,5.718,0,0,0-.553-1.825,6.216,6.216,0,0,0-4.928-4.22c-5.26-.636-12.3,2.445-12.3,2.445s7.041,16.112,16.261,5.984c-3.285-.686-10-2.671-13.274-5.382,4.917,3.407,11.742,3.916,14.337,3.982,1.394,6.084.968,19.077.625,25.786s-1.034,90.354-1.034,90.354h4.425s-2-89.6-.62-99.619c3.214-.6,15.714-3.374,23.413-11.128-4.6,5.47-16.261,11.831-21.471,13.96,18.252,13.883,26.178-15.857,26.178-15.857S1239.853,975.666,1231.385,978.321Z" transform="translate(-623.898 -590.912)"/><ellipse class="n" cx="32.157" cy="31.836" rx="32.157" ry="31.836" transform="translate(566.641 306.673)"/><ellipse class="o" cx="27.008" cy="26.737" rx="27.008" ry="26.737" transform="translate(571.79 311.773)"/><path class="m" d="M721.039,796.653l-3.872-7.843-3.872,7.843-8.656,1.261,6.261,6.106-1.477,8.623,7.743-4.076,7.743,4.076-1.477-8.623,6.261-6.106Z" transform="translate(-400.927 -514.676)"/><path class="m" d="M773.5,796.653l-3.872-7.843-3.872,7.843-8.656,1.261,6.267,6.106-1.482,8.623,7.743-4.076,7.743,4.076-1.477-8.623,6.261-6.106Z" transform="translate(-424.371 -514.676)"/><path class="m" d="M825.965,796.653l-3.872-7.843-3.872,7.843-8.662,1.261,6.267,6.106-1.477,8.623,7.743-4.076,7.738,4.076-1.477-8.623,6.267-6.106Z" transform="translate(-447.815 -514.676)"/><path class="m" d="M878.429,796.653l-3.872-7.843-3.872,7.843-8.656,1.261,6.261,6.106-1.477,8.623,7.743-4.076,7.743,4.076-1.482-8.623,6.267-6.106Z" transform="translate(-471.264 -514.676)"/><path class="m" d="M930.451,789.646l2.074,4.237.725,1.466,1.621.238,4.679.68-3.385,3.319-1.173,1.145.276,1.615.8,4.663-4.187-2.212-1.449-.763-1.449.763-4.187,2.212.8-4.663.276-1.615-1.173-1.145-3.385-3.319,4.679-.68,1.621-.238.724-1.466,2.1-4.242m0-7.041-4.889,9.9-10.929,1.593,7.959,7.71-1.892,10.885,9.773-5.144,9.779,5.144L938.36,801.8l7.909-7.7L935.34,792.5l-4.89-9.9Z" transform="translate(-494.762 -511.901)"/><path class="m" d="M965.876,790.356,960.19,778.84l-5.68,11.516L941.8,792.2l9.193,8.966-2.168,12.661,11.366-5.979,11.372,5.979-2.174-12.661,9.2-8.966Z" transform="translate(-506.913 -510.22)"/><path class="p" d="M1045.386,869.794a9.763,9.763,0,0,0-1.975,5.343c-.16,3.175.553,10.249,1.5,11.333s2.766,1.156,3.086,2.091a7.7,7.7,0,0,1,.155,2.528l6.72.94,1.576-5.774.16-15.089-5.221-2.666Z" transform="translate(-552.313 -550.289)"/><path class="p" d="M979.47,830.189a14.358,14.358,0,0,1-.553-3.695c.166-1.007,2.063-5.227,1.25-5.465s-1.438,1.582-2.013,1.776-2.019-5.133-3.12-5.42c-.94-.243-3.872-.094-4.22,2.732s2.212,5.608,2.638,6.184,2.257,5.664,2.257,5.664Z" transform="translate(-519.865 -527.41)"/><path class="p" d="M1124.439,1016.83a14.934,14.934,0,0,0,1.621,3.319c.935,1.161,2.267,2.528,2.129,4.784s-3.026,5.21-3.54,4.37-.227-2.86-.968-3.451-1.582-.072-1.659-1.217.68-2.765.182-3.811-1.355-3.224-1.355-3.224Z" transform="translate(-586.93 -616.578)"/><path class="p" d="M1035.79,1184.291l.083,4.325c.42-.033,5.786-.111,5.786-.111l-.083-4.325Z" transform="translate(-548.917 -691.366)"/><path class="f" d="M1020.555,1189.48s-12.395,6.521-12.655,6.637c-.111.05-.73.21-1.383.371a2.174,2.174,0,0,0-1.72,2.118,2.388,2.388,0,0,0,.066.691c.133.177,24.126-.459,24.126-.459s.415-7.743-.863-8S1022.536,1191.67,1020.555,1189.48Z" transform="translate(-535.065 -693.735)"/><path class="p" d="M1083.49,1180.266l.553,4.292c.415-.083,5.747-.736,5.747-.736l-.553-4.292Z" transform="translate(-570.234 -689.288)"/><path class="f" d="M1069.689,1186.2s-11.615,7.821-11.864,7.965c-.105.066-.7.288-1.339.52a2.174,2.174,0,0,0-1.477,2.3,2.209,2.209,0,0,0,.144.68c.149.16,23.932-3.07,23.932-3.07s-.426-7.716-1.72-7.854S1071.89,1188.163,1069.689,1186.2Z" transform="translate(-557.501 -692.269)"/><path class="q" d="M1026.72,1015.01l-4.63,44.912,6.228,49.226,7.544.381,1.316-51.494,6.228-16.41,1.128,17.019,11.056,48.817,6.682-.481-1.7-45.36-1.234-46.527Z" transform="translate(-542.794 -615.764)"/><path class="c" d="M1042.618,884.9c-2.3-2.3-10.255-7.948-10.255-7.948l-16.859-.614L996.7,862.149l-13.927-24-5.653,2.511,11.77,27.495s17.1,18.844,17.522,19.679.21,48.12.21,48.12,22.6,5.232,32.633.835c-1.466-23.645-1.051-32.854-1.051-32.854l9.646,13.634,8.9,21.228,4.1-.879-4.358-23.23S1044.919,887.21,1042.618,884.9Z" transform="translate(-522.698 -536.726)"/><path class="q" d="M1058.713,859.56a6.959,6.959,0,0,0-3.54-1.6h0c-1.8-.243-2.876-.6-4.259-.774a9.015,9.015,0,0,1-3.59-1.261,22.057,22.057,0,0,0-2.539-1.609,2.961,2.961,0,0,0-2.92.116,2.638,2.638,0,0,0-.819,2.212c.078,2.633,1.709,4.978,3.319,7.19.21.3.432.6.653.89.52,2.423.415,6.953.78,7.456.476.647,1.023-4.181,2.45-.94.868,1.964-1.421,3.971-1.421,3.971s1.372,4.082,2.4,5.382,5.033,1.327,6.77,1.106,1.267-2.213,3.164-4.834S1063.918,864.035,1058.713,859.56Z" transform="translate(-551.26 -543.805)"/><rect class="i" width="19.591" height="79.132" transform="translate(153.806 273.586)"/><rect class="i" width="19.591" height="65.194" transform="translate(129.73 287.525)"/><rect class="i" width="19.591" height="49.613" transform="translate(105.653 303.105)"/><rect class="i" width="19.591" height="99.221" transform="translate(177.883 253.492)"/><path class="i" d="M160.707,1114.073c-1.659,3.026-5.177.907-5.177.907s.2-1,1.787-1.831a4.861,4.861,0,0,1,3.49.11l1.947-.05h.033c.431,0,.863.055,1.294.094-5.564-1.963-2.942-8.534-2.942-8.534s1.748.072,3.6,2.539c1.488,1.98.9,5.337.73,6.162a32.389,32.389,0,0,1,6.41,1.621,9.716,9.716,0,0,1-.808-.874c-2.124-2.539-1.189-7.356-1.189-7.356,7.594.979,6.084,8.12,5.636,9.762a47.216,47.216,0,0,1,6.864,4.082,9.883,9.883,0,0,1-1.5-3.319c-.957-3.573,2.257-8.025,2.257-8.025,7.445,4.685,2.091,11.455,1.04,12.666,1.333,1.029,2.561,2.069,3.662,3.07,1.211,1.106,2.329,2.212,3.319,3.241a10.011,10.011,0,0,1-.382-4.829c.553-4.015,5.653-7.157,5.653-7.157,5.42,7.683-2.34,12.234-4.159,13.164a62.62,62.62,0,0,1,5.47,6.715l-.669.448a58.669,58.669,0,0,0-3.645-4.651c-2.876,9.1-12.771,4.474-12.771,4.474s.249-2.483,3.916-4.917c2.362-1.571,5.885-1.161,7.782-.78a69.9,69.9,0,0,0-5.089-5.121c-.647-.586-1.339-1.184-2.063-1.786-2.55,8.6-11.737,4.3-11.737,4.3s.221-2.273,3.579-4.5c2.107-1.4,5.227-1.106,6.986-.736a50.055,50.055,0,0,0-7.19-4.751c-1.571,8.12-10.216,4.845-10.216,4.845s.044-2.041,2.887-4.248c1.853-1.449,4.806-1.305,6.361-1.106a35,35,0,0,0-9.3-3.23c.138,7.367-7.843,5.94-7.843,5.94s-.282-1.726,1.764-4.038c1.587-1.8,4.84-1.947,5.8-1.953a28.86,28.86,0,0,0-3.551-.409Z" transform="translate(-155.53 -655.878)"/><path class="c" d="M252.043,1106.242C269.5,1071.74,262,1006.053,215.71,989.25c25.752,33.291-11.333,68.07,15.752,116.992Z" transform="translate(-182.424 -604.252)"/><path class="r" d="M259.74,1123.17s4.242-76.04-13.7-96.04c16.316,25.21,9.524,96.04,9.524,96.04Z" transform="translate(-195.979 -621.181)"/><path class="c" d="M211.783,1178.5h17.7c-2.024-12.489-13.883-29-27.1-27.462C208.47,1156.686,207.363,1169.252,211.783,1178.5Z" transform="translate(-176.467 -676.51)"/><path class="i" d="M280.425,1111.637c-12.9,16.809-15.785,38.717-16.1,41.344H289.4c21.98-18.606,9.2-41.483,23.728-59.121C313.125,1093.871,294.153,1093.744,280.425,1111.637Z" transform="translate(-204.153 -651.002)"/><path class="i" d="M229.975,1182.952H231.3c-2.522-5.775-8.949-19.3-14.972-22.052C222.232,1164.827,227.646,1177.089,229.975,1182.952Z" transform="translate(-182.701 -680.963)"/><path class="c" d="M278.65,1162.408h2.605c3.053-10.094,12.384-38.2,24.154-47.478C293.252,1121.672,281.891,1152.867,278.65,1162.408Z" transform="translate(-210.552 -660.419)"/><rect class="i" width="74.729" height="2.965" transform="translate(25 501.99)"/><path class="m" d="M427.617,711.81l-17.4,4.663,3.689,3.689-25,25H373.9l-27.81,27.81,5.255,5.255L376.975,752.6h15.011l27.185-27.179,3.789,3.789Z" transform="translate(-240.691 -480.265)"/><text class="s" transform="translate(590.098 344.201)"><tspan x="0" y="0">$</tspan></text><text class="t" transform="translate(550.8 436.932)"><tspan x="0" y="0">$</tspan></text><text class="u" transform="translate(626.249 451.406)"><tspan x="0" y="0">$</tspan></text></g></g></svg>