<svg xmlns="http://www.w3.org/2000/svg" xmlns:xlink="http://www.w3.org/1999/xlink" width="522" height="543.68" viewBox="0 0 522 543.68"><defs><style>.a{fill:none;}.b{fill:#c67f2a;}.c{fill:#f4a93d;}.d{clip-path:url(#a);}.e{fill:#cc8633;}.f{fill:#2d2923;}.g{fill:#474135;}.h{fill:#60584a;}.i{fill:#353128;}.j{fill:#211f1a;}.k{fill:#fff;}.l{fill:#bfbfbf;}.m{fill:url(#b);}.n{fill:#e2e2e2;}.o{fill:#d3d3d3;opacity:0.5;}.at,.au,.o{mix-blend-mode:multiply;}.at,.au,.o,.x{isolation:isolate;}.p{fill:#fef0ff;}.q{fill:#698137;}.r{fill:#516326;}.s{fill:#606060;}.t{fill:#fcfcfc;}.u{fill:#565656;}.v{fill:#0a0907;}.w{fill:#150e16;}.y{fill:#6d3d0c;}.z{fill:#af6a1e;}.aa{fill:#d18428;}.ab{fill:#232323;}.ac{fill:#161616;}.ad{fill:#191919;}.ae{fill:#353535;}.af{fill:#f2f2f2;}.ag{fill:#f7b884;}.ah{fill:#fee9ff;}.ai{fill:#282828;}.aj{fill:#e29e6a;}.ak{fill:#1c1915;}.al{fill:#2b2720;}.am{fill:#28251e;}.an{fill:#9a9a9b;}.ao{fill:#8e8e8e;}.ap{fill:#a9a9aa;}.aq{fill:#b7b7b7;}.ar{fill:#f9f9f9;}.as{fill:#262626;}.at{fill:#e9eaeb;}.at,.au{opacity:0.2;}.au{fill:#cb89f0;}.av{fill:#562d08;}.aw{fill:#ffcea5;}.ax{fill:#4a5922;}.ay{fill:#161410;}.az{fill:#9e6118;}.ba{fill:#bc781e;}.bb{fill:#f2c097;}.bc{fill:#cbcacc;}.bd{fill:#333;}.be{fill:#dbdbdb;}.bf{fill:#292929;}.bg{fill:#eea886;}.bh{fill:#212121;}.bi{fill:#343027;}.bj{fill:#2d2a22;}.bk{fill:#6b5f45;}.bl{fill:#eea987;}.bm{fill:#a77860;}</style><clipPath id="a"><ellipse class="a" cx="261" cy="150.691" rx="261" ry="150.691"/></clipPath><linearGradient id="b" y1="0.5" x2="1" y2="0.5" gradientUnits="objectBoundingBox"><stop offset="0" stop-color="#f5abff"/><stop offset="0.456" stop-color="#ffc5ff"/><stop offset="1" stop-color="#ffdeff"/></linearGradient></defs><g transform="translate(-306 -900)"><g transform="translate(306 900)"><g transform="translate(0 0)"><g transform="translate(0 204.343)"><ellipse class="b" cx="261" cy="150.69" rx="261" ry="150.69" transform="translate(0 37.956)"/><ellipse class="c" cx="261" cy="150.691" rx="261" ry="150.691" transform="translate(0)"/></g><g transform="translate(0 204.343)"><g class="d"><g transform="translate(-83.964 29.999)"><path class="e" d="M2071.937,605.771l-9.932,5.734,4.35,2.512h-90.107l-9.293,5.2h-93.663l-159.5,92.086,11.524,6.653h70.906l9.867,5.7H1896.2l18.429,10.64h5.508l-28.223-24.582-9.932,5.734,4.349,2.511h-58.823l183.519-98.24h65.195l18.429,10.64h5.508Z" transform="translate(-1713.795 -605.771)"/><path class="e" d="M1801.49,678.071c-14.6-.092-29.411-1.27-42.614,8.059-6.22,4.393-4.594,4.589-7,8.091-2.11,3.068-6.157,4.361-7.346,7.89-5.661,16.815,29.524,16.835,54.614,18.072,13.295.656,45.9,1.654,46.1.812.585-2.482-.267-7.5-1.97-9.4q-2.185-2.441-4.543-4.72c-1.345-1.3-2.854-3.122-2.047-4.808.72-1.509-3.475-4.736-1.8-4.717,12.871.151,47.67.577,47.67.577.86-.088.986-3.8-.327-5.329s-3.3-2.263-5.1-3.168c-5.706-2.865-6.594-4.7-10.9-8.53C1866.215,680.9,1817.11,678.172,1801.49,678.071Z" transform="translate(-1689.813 -548.29)"/><path class="e" d="M2062.652,664.036H2015.27l-5.34,3.9h54.26Z" transform="translate(-1478.046 -559.388)"/><path class="e" d="M2059.075,667.519l-82.045.519L1866.246,732l33.231,19.186-23.069,11.94s-26.133.919-39.991,9.792c-21.6-2.852-32.048,13.812-28.021,18.676a20.975,20.975,0,0,0,14.411,7.45q.633.693,1.311,1.334c9.665,9.2,23.123,13.9,36.464,14.178q2.457.051,4.909-.086l3.642,10.8,50.1-6.423h39.722l.848-4.6h-32.978l40.936-23.633,5.591,3.228H2056.6l26.457-97.05Z" transform="translate(-1639.16 -556.615)"/></g></g></g><g transform="translate(88.371 0)"><g transform="translate(0)"><g transform="translate(0 334.736)"><path class="f" d="M1843.718,687.734l-33.973-19.614v-3.841l33.973,19.614Z" transform="translate(-1809.745 -659.588)"/><path class="g" d="M1836.784,676.429l-8.124,4.69v-3.841l8.124-4.69Z" transform="translate(-1794.687 -652.973)"/><path class="h" d="M1843.718,685.972l-33.973-19.614,8.124-4.69,33.973,19.614Z" transform="translate(-1809.745 -661.667)"/></g><g transform="translate(180.067 230.774)"><path class="f" d="M1943.973,629.851,1910,610.237V606.4l33.973,19.615Z" transform="translate(-1910 -601.706)"/><path class="g" d="M1937.04,618.546l-8.124,4.69V619.4l8.124-4.691Z" transform="translate(-1894.942 -595.091)"/><path class="h" d="M1943.973,628.089,1910,608.475l8.124-4.69L1952.1,623.4Z" transform="translate(-1910 -603.785)"/></g><g transform="translate(196.436 84.472)"><path class="f" d="M1925.558,682.356l-6.443-3.72V523.364l6.443,3.72Z" transform="translate(-1919.114 -521.504)"/><path class="g" d="M1925.923,679.672l-3.221,1.86V526.26l3.221-1.86Z" transform="translate(-1916.258 -520.68)"/><path class="h" d="M1925.558,527.909l-6.443-3.72,3.222-1.86,6.443,3.72Z" transform="translate(-1919.114 -522.329)"/></g><g transform="translate(19.193)"><path class="g" d="M2004.138,478.9,1828.294,582.141l-7.863-4.541,177.191-102.3Z" transform="translate(-1820.431 -475.298)"/><path class="i" d="M2001.251,615.836l-177.192,102.3V579.605l177.192-102.3Z" transform="translate(-1817.544 -473.701)"/><path class="j" d="M1826.943,674.525l-6.443-3.72V532.272l6.443,3.72Z" transform="translate(-1820.377 -429.941)"/><path class="k" d="M1995.88,609.207l-169.525,98.044v-128.6L1995.88,480.6Z" transform="translate(-1815.715 -471.074)"/></g><g transform="translate(58.458 158.362)"><path class="l" d="M1957.452,567.466,1845.24,632.252v-2.294l31.733-20.4,80.48-44.381Z" transform="translate(-1839.946 -562.112)"/><path class="m" d="M1959.809,566.531l-53.651,30.976-58.561,33.81-5.3-3.063L1954.5,563.468Z" transform="translate(-1842.292 -563.468)"/><path class="n" d="M1959.809,566.531l-53.651,30.976-58.561,33.81-5.3-3.063L1954.5,563.468Z" transform="translate(-1842.292 -563.468)"/><path class="l" d="M1847.6,602.6l-5.3-3.062v2.3l5.293,3.05S1847.608,602.6,1847.6,602.6Z" transform="translate(-1842.292 -534.753)"/></g><g transform="translate(16.16 188.555)"><path class="f" d="M1825.186,740.306l-6.443-3.72V581.314l6.443,3.72Z" transform="translate(-1818.743 -579.454)"/><path class="g" d="M1825.552,737.621l-3.222,1.86V584.209l3.222-1.86Z" transform="translate(-1815.887 -578.63)"/><path class="h" d="M1825.186,585.858l-6.443-3.72,3.222-1.86,6.443,3.72Z" transform="translate(-1818.743 -580.278)"/></g><g transform="translate(40.922 53.313)"><path class="c" d="M1910.014,532.969c-.541.221-.686,1.121-.145.909,14.941-5.843,27.139-5.886,13.625,9.929-11.579,13.483-33.657,28.506-52.927,35.252-44.04,14.864,4.382-33.057,43.3-48.473.544-.217.7-1.119.16-.916-43.952,16.634-88.8,66.678-43.826,51.11,21.009-7.47,42.962-23.4,53.937-36.258C1938.371,527.712,1926.862,526.1,1910.014,532.969Z" transform="translate(-1817.408 -485.731)"/><g transform="translate(49.31 51.38)"><path class="c" d="M1867.6,555.287a2.732,2.732,0,0,0-1.132-.79,2,2,0,0,0-1.347.007,9.2,9.2,0,0,0,1.4-1.492,9.979,9.979,0,0,0,1.025-1.706,9.394,9.394,0,0,0,.642-1.8,7.483,7.483,0,0,0,.22-1.767,2.19,2.19,0,0,0-.918-2.114q-.921-.5-2.874.63-.281.162-.632.415c-.235.169-.481.354-.733.557s-.494.408-.729.616-.437.4-.6.555a11.052,11.052,0,0,0-1.01,1.148,4.557,4.557,0,0,0-.591,1.026,4.15,4.15,0,0,0-.271,1.089,11.834,11.834,0,0,0-.066,1.309v10.6c0,.278.077.458.23.541s.367.045.642-.113a1.664,1.664,0,0,0,.625-.616,1.631,1.631,0,0,0,.212-.8v-5.606c.219-.079.449-.176.69-.289s.465-.232.673-.352l.329-.19a2.083,2.083,0,0,1,1.223-.3,1.851,1.851,0,0,1,1.108.487,3.388,3.388,0,0,1,.83,1.234,6.009,6.009,0,0,1,.4,1.96.816.816,0,0,0,.23.6q.2.156.623-.092a1.678,1.678,0,0,0,.648-.643,1.772,1.772,0,0,0,.223-.885,5.551,5.551,0,0,0-.289-1.818A4.077,4.077,0,0,0,1867.6,555.287Zm-4.481-.363c-.253.146-.506.289-.765.429a3.9,3.9,0,0,1-.664.3v-3.623c0-.458.011-.826.034-1.11a2.777,2.777,0,0,1,.154-.751,2.192,2.192,0,0,1,.379-.634,7.682,7.682,0,0,1,.681-.7,6.671,6.671,0,0,1,.632-.524,7.47,7.47,0,0,1,.7-.465c.812-.467,1.415-.571,1.816-.312a1.833,1.833,0,0,1,.6,1.638,6.292,6.292,0,0,1-.846,3.206A7.118,7.118,0,0,1,1863.121,554.924Z" transform="translate(-1862.983 -522.128)"/><path class="c" d="M1871.323,545.537a8.216,8.216,0,0,0-2.173,1.891,16.161,16.161,0,0,0-3.046,5.677,9.865,9.865,0,0,0-.46,2.811,3.747,3.747,0,0,0,.163,1.18,1.336,1.336,0,0,0,.508.722,1.277,1.277,0,0,0,.9.156,3.769,3.769,0,0,0,1.322-.519,12.985,12.985,0,0,0,3.826-3.75,1.521,1.521,0,0,0,.345-.885c0-.456-.127-.612-.379-.467a1.97,1.97,0,0,0-.46.485,15.432,15.432,0,0,1-1.338,1.534,7.415,7.415,0,0,1-1.518,1.169q-.905.52-1.241.19a1.744,1.744,0,0,1-.336-1.241l4.088-3.387a7.115,7.115,0,0,0,1.931-2.3,5.406,5.406,0,0,0,.566-2.373,1.389,1.389,0,0,0-.649-1.363Q1872.719,544.733,1871.323,545.537Zm.781,3.369a4.019,4.019,0,0,1-1.076,1.184l-3.579,2.924a7.771,7.771,0,0,1,.419-1.674,11.057,11.057,0,0,1,.772-1.683,8.734,8.734,0,0,1,1.01-1.44,4.534,4.534,0,0,1,1.131-.972c.526-.3.921-.379,1.184-.23a.858.858,0,0,1,.395.814A2.392,2.392,0,0,1,1872.1,548.907Z" transform="translate(-1858.478 -522.527)"/><path class="c" d="M1877.448,542.357a3.18,3.18,0,0,0-2.067.607,7.621,7.621,0,0,0-1.552,1.166,7.706,7.706,0,0,0-1.117,1.365,5.947,5.947,0,0,0-.674,1.431,4.578,4.578,0,0,0-.223,1.351,1.5,1.5,0,0,0,.313,1.033,1.111,1.111,0,0,0,1.018.257l1.821-.219a.892.892,0,0,1,.683.1.655.655,0,0,1,.19.528,2.6,2.6,0,0,1-.452,1.265,3.639,3.639,0,0,1-1.338,1.263,1.746,1.746,0,0,1-1.149.332c-.275-.061-.482-.321-.625-.778a1.147,1.147,0,0,0-.361-.636.45.45,0,0,0-.476.041,1.294,1.294,0,0,0-.533.652,2.809,2.809,0,0,0-.188,1.087,1.931,1.931,0,0,0,.2.923,1.179,1.179,0,0,0,.584.546,1.707,1.707,0,0,0,.936.072,3.772,3.772,0,0,0,1.248-.488,7.172,7.172,0,0,0,1.633-1.286,9.619,9.619,0,0,0,1.207-1.554,7.43,7.43,0,0,0,.747-1.559,4.17,4.17,0,0,0,.255-1.3,1.533,1.533,0,0,0-.336-1.117,1.289,1.289,0,0,0-1.108-.228l-1.595.185a1.2,1.2,0,0,1-.78-.088.579.579,0,0,1-.2-.494,2.369,2.369,0,0,1,.411-1.229,2.966,2.966,0,0,1,1.049-1.034,1.324,1.324,0,0,1,.88-.226,1.69,1.69,0,0,1,.846.6c.142.163.361.158.656-.013a1.516,1.516,0,0,0,.616-.709,2.31,2.31,0,0,0,.223-.974A.825.825,0,0,0,1877.448,542.357Z" transform="translate(-1854.439 -524.628)"/><path class="c" d="M1883.116,539.143a1.5,1.5,0,0,0-.632.647,1.8,1.8,0,0,0-.189.806v2.155a10.213,10.213,0,0,1-.28,2.365,12.061,12.061,0,0,1-.729,2.159,8.623,8.623,0,0,1-1.053,1.758,4.467,4.467,0,0,1-1.239,1.133q-.789.455-1.223.079a2.2,2.2,0,0,1-.437-1.645,7.262,7.262,0,0,1,.115-1.167c.077-.451.185-.943.322-1.471s.305-1.074.508-1.64.436-1.137.7-1.712a2.023,2.023,0,0,0,.163-.426,1.38,1.38,0,0,0,.034-.277.5.5,0,0,0-.156-.388.289.289,0,0,0-.37-.02,1.343,1.343,0,0,0-.3.248,2.358,2.358,0,0,0-.32.528c-.363.682-.695,1.4-1,2.146s-.566,1.476-.779,2.188a19.437,19.437,0,0,0-.5,2.04,9.531,9.531,0,0,0-.181,1.71,2.084,2.084,0,0,0,.747,1.88c.5.325,1.247.2,2.241-.375a6.909,6.909,0,0,0,2.175-2.064,12.917,12.917,0,0,0,1.634-3.393v2.18a.8.8,0,0,0,.181.593q.181.178.607-.068a1.407,1.407,0,0,0,.591-.623,1.867,1.867,0,0,0,.179-.8v-8.032a.777.777,0,0,0-.187-.589C1883.6,538.955,1883.4,538.978,1883.116,539.143Z" transform="translate(-1850.582 -527.279)"/><path class="c" d="M1882.314,533.741a1.534,1.534,0,0,0-.623.643,1.8,1.8,0,0,0-.2.812V550.67a.74.74,0,0,0,.2.586q.2.167.623-.079a1.566,1.566,0,0,0,.643-.652,1.823,1.823,0,0,0,.2-.812V534.239a.742.742,0,0,0-.2-.586C1882.824,533.542,1882.61,533.571,1882.314,533.741Z" transform="translate(-1845.858 -531.587)"/><path class="c" d="M1889.179,543.765a.233.233,0,0,0-.3,0,.89.89,0,0,0-.23.232,5.238,5.238,0,0,1-.566.622,4.046,4.046,0,0,1-.714.508q-1.2.692-1.2-1.658v-4.5l2.087-1.205a1.116,1.116,0,0,0,.476-1.056c0-.507-.16-.668-.476-.485l-2.087,1.2v-2.179a.772.772,0,0,0-.187-.589q-.191-.172-.632.083a1.48,1.48,0,0,0-.616.638,1.82,1.82,0,0,0-.189.806v2.179l-.74.427a1.091,1.091,0,0,0-.476,1.035q0,.784.476.508l.74-.427v3.82a4.365,4.365,0,0,1-.073.837,4.854,4.854,0,0,0-.075.938,2.769,2.769,0,0,0,.181,1.072,1.3,1.3,0,0,0,.51.636,1.227,1.227,0,0,0,.787.156,2.506,2.506,0,0,0,1-.357,5.9,5.9,0,0,0,1.119-.866,8.28,8.28,0,0,0,1.017-1.175,1.43,1.43,0,0,0,.279-.823A.5.5,0,0,0,1889.179,543.765Z" transform="translate(-1844.396 -530.795)"/><path class="c" d="M1877.448,542.357a3.18,3.18,0,0,0-2.067.607,7.621,7.621,0,0,0-1.552,1.166,7.706,7.706,0,0,0-1.117,1.365,5.947,5.947,0,0,0-.674,1.431,4.578,4.578,0,0,0-.223,1.351,1.5,1.5,0,0,0,.313,1.033,1.111,1.111,0,0,0,1.018.257l1.821-.219a.892.892,0,0,1,.683.1.655.655,0,0,1,.19.528,2.6,2.6,0,0,1-.452,1.265,3.639,3.639,0,0,1-1.338,1.263,1.746,1.746,0,0,1-1.149.332c-.275-.061-.482-.321-.625-.778a1.147,1.147,0,0,0-.361-.636.45.45,0,0,0-.476.041,1.294,1.294,0,0,0-.533.652,2.809,2.809,0,0,0-.188,1.087,1.931,1.931,0,0,0,.2.923,1.179,1.179,0,0,0,.584.546,1.707,1.707,0,0,0,.936.072,3.772,3.772,0,0,0,1.248-.488,7.172,7.172,0,0,0,1.633-1.286,9.619,9.619,0,0,0,1.207-1.554,7.43,7.43,0,0,0,.747-1.559,4.17,4.17,0,0,0,.255-1.3,1.533,1.533,0,0,0-.336-1.117,1.289,1.289,0,0,0-1.108-.228l-1.595.185a1.2,1.2,0,0,1-.78-.088.579.579,0,0,1-.2-.494,2.369,2.369,0,0,1,.411-1.229,2.966,2.966,0,0,1,1.049-1.034,1.324,1.324,0,0,1,.88-.226,1.69,1.69,0,0,1,.846.6c.142.163.361.158.656-.013a1.516,1.516,0,0,0,.616-.709,2.31,2.31,0,0,0,.223-.974A.825.825,0,0,0,1877.448,542.357Z" transform="translate(-1824.439 -542.628)"/></g><path class="c" d="M1879.644,531.777c-.889,2.294-1.665,4.526-2.412,6.717a116.2,116.2,0,0,0,1.272-24.288c-.043-.487-.8-.047-.839.489,0,0-.429,8-1.555,25.4-.375-1.225-.97-3.479-1.7-5.385-.153-.393-.875.174-.821.645.163,1.4,1.171,8.867,2.552,8.582a1.567,1.567,0,0,0,1-1.034c.417-1.365,2.17-6.816,3.289-11.265.057-.224-.031-.384-.216-.37A.8.8,0,0,0,1879.644,531.777Z" transform="translate(-1799.849 -497.804)"/><path class="c" d="M1860.837,559.024c.589-.64.561-1.485-.061-1.378-1.124.2-5.51.855-9.271,1.8-.485.124-.778.981-.327.961,1.737-.076,3.494-.264,5.255-.474a145.112,145.112,0,0,0-23.511,11.65c-.512.323-.53,1.09-.018.848,0,0,10.1-4.963,24.446-11.879-1.471,1.189-4.066,3.206-6.414,5.23-.487.42-.355,1.07.149.738,1.624-1.069,3.231-2.218,4.837-3.373A30.7,30.7,0,0,0,1860.837,559.024Z" transform="translate(-1832.529 -463.062)"/><path class="c" d="M1904.961,533.059c1.717-1.864,3.438-3.754,5.144-5.744.438-.512.12-1-.359-.549-3.718,3.527-8.063,8.109-9.115,9.192-.605.625-.609,1.491,0,1.417,2.283-.273,7.766-3.1,9.819-4.208.505-.271.607-1.061.115-.9-2.374.8-4.994,1.9-6.471,2.477,14.284-10.207,24.331-17.3,24.331-17.3a.872.872,0,0,0,.361-.616C1928.8,515.542,1913.524,526.017,1904.961,533.059Z" transform="translate(-1778.677 -495.632)"/><path class="c" d="M1893.755,536.659c1.051-1.374,3.621-4.621,6.026-8.08.377-.543-.027-.918-.487-.4-1.421,1.595-2.656,3.082-3.967,4.679,8.121-14.022,13.216-21.77,16.757-27.259.37-.573-.115-.873-.533-.336a174.273,174.273,0,0,0-16.908,27.259c.246-1.679.561-4.165.648-5.714.031-.508-.673-.235-.822.323-.553,2.064-1.441,6.308-1.915,9.485C1892.448,537.343,1893.2,537.379,1893.755,536.659Z" transform="translate(-1784.753 -504.981)"/><path class="c" d="M1864.917,538.678c-.034-.165-.192-.221-.388-.119-.662.34-.483,1.268-.514,2.832.02,2.748.006,1.85.054,3.2-3.8-4.982-9.422-9.252-14.633-10.992-.381-.126-.931.711-.609.925a105.365,105.365,0,0,1,14.473,11.154,31.988,31.988,0,0,0-3.655-.756c-.406-.057-.893.769-.555.947a38.889,38.889,0,0,0,5.415,2.179c.476.167,1.31-.609,1.281-1.372A60.591,60.591,0,0,0,1864.917,538.678Z" transform="translate(-1819.631 -482.204)"/><path class="c" d="M1876.115,557.161c-.232-.487-1.092-.057-1.412.715-1.16,2.82-1.873,8.357-2.138,10.931-.056.533.667.268.819-.3.734-2.753,1.323-5.67,1.7-7.353,1.141,16.289,1.557,23.6,1.557,23.6.038.487.79.066.837-.487a95.856,95.856,0,0,0-1.27-22.812,46.1,46.1,0,0,0,2.41,3.93c.228.325.925-.35.78-.756A77.72,77.72,0,0,0,1876.115,557.161Z" transform="translate(-1800.659 -463.604)"/><path class="c" d="M1894.4,545.4c1.378-.108,2.691-.228,4.2-.478.479-.077.823-.921.41-.966a53.494,53.494,0,0,0-6.486-.181,1.392,1.392,0,0,0-1.1,1.546,40.651,40.651,0,0,0,2.791,6.464c.2.338.886-.262.8-.7a41.751,41.751,0,0,0-1.222-4.533,38.677,38.677,0,0,0,18.7,4.779c.449-.009.868-.88.462-.963C1903.263,548.381,1900.928,547.671,1894.4,545.4Z" transform="translate(-1785.675 -474.117)"/><path class="c" d="M1862.876,565.826c-1.051,1.4-3.587,4.664-5.952,8.133-.374.55.05.9.487.4,1.353-1.539,2.709-3.2,3.94-4.733-5.413,9.548-7.587,13.3-16.477,27.364-.363.573.131.862.544.32a172.911,172.911,0,0,0,16.628-27.363c-.239,1.814-.5,4.19-.564,5.674-.007.194.111.3.3.25.734-.2.829-1.755,1.539-5.331.307-1.708.557-3.152.765-4.693C1864.186,565.12,1863.421,565.1,1862.876,565.826Z" transform="translate(-1822.803 -456.968)"/></g><path class="o" d="M1857.557,544.055c.02-3.247.2-7.016.514-11.186a1.649,1.649,0,0,0-2.677-1.408l-5.58,4.506-13.086,5.584a150.825,150.825,0,0,0-.744,19.114l21.573-12.456c.018-1.178,0-2.428,0-3.754Z" transform="translate(-1788.922 -430.879)"/><path class="c" d="M1858,529.961l-21.637,12.492,0,6.29a25.945,25.945,0,0,0,.445,5.058,21.921,21.921,0,0,0,1.636,5.088l21.657-12.5a22.732,22.732,0,0,1-1.848-6.306,25.348,25.348,0,0,1-.248-3.765Z" transform="translate(-1788.557 -431.781)"/><g transform="translate(49.3 103.891)"><path class="p" d="M1838.1,540.4q2.357-1.371,4.715-2.744c.492-.286.494-1.054,0-.767q-2.357,1.374-4.715,2.744C1837.6,539.918,1837.6,540.685,1838.1,540.4Z" transform="translate(-1836.769 -530.209)"/><path class="p" d="M1841.639,538.576c1.852-.963,3.684-2.263,5.537-3.269.494-.27.494-1.035,0-.769-1.854,1.006-3.685,2.306-5.537,3.271C1841.145,538.066,1841.147,538.833,1841.639,538.576Z" transform="translate(-1833.949 -532.072)"/><path class="p" d="M1847.944,533.208l-2.324,1.4c-.492.3-.494,1.065,0,.767l2.324-1.4C1848.437,533.679,1848.438,532.91,1847.944,533.208Z" transform="translate(-1830.78 -533.14)"/><path class="p" d="M1844.709,538.162c.492-.3.494-1.067,0-.767-2.4,1.455-4.76,2.682-7.148,4.294-.487.331-.492,1.1,0,.769C1839.949,540.844,1842.308,539.617,1844.709,538.162Z" transform="translate(-1837.194 -529.808)"/><path class="p" d="M1849.394,534.435q-3.365,2.037-6.73,4.077c-.492.3-.494,1.067,0,.767l6.73-4.077C1849.886,534.9,1849.888,534.135,1849.394,534.435Z" transform="translate(-1833.134 -532.164)"/><path class="p" d="M1845.844,537.413c-2.1,1.223-4.2,2.464-6.306,3.7-.492.291-.494,1.06,0,.767,2.1-1.239,4.2-2.48,6.306-3.7C1846.338,537.894,1846.338,537.126,1845.844,537.413Z" transform="translate(-1835.622 -529.789)"/><path class="p" d="M1846.682,536c-.922.481-1.789.984-2.71,1.573-.492.313-.494,1.081,0,.767.921-.587,1.789-1.092,2.71-1.573C1847.175,536.511,1847.174,535.744,1846.682,536Z" transform="translate(-1832.093 -530.904)"/></g><path class="o" d="M1890.378,519.29c.02-3.246.2-7.014.512-11.184a1.649,1.649,0,0,0-2.676-1.408l-5.579,4.506-13.086,5.584a150.117,150.117,0,0,0-.744,19.112l21.573-12.454c.018-1.178,0-2.428,0-3.754Z" transform="translate(-1762.794 -450.593)"/><path class="q" d="M1890.822,505.2l-21.637,12.492,0,6.29a25.8,25.8,0,0,0,.445,5.058,21.814,21.814,0,0,0,1.636,5.088l21.658-12.5a22.668,22.668,0,0,1-1.849-6.308,25.1,25.1,0,0,1-.248-3.763Z" transform="translate(-1762.428 -451.494)"/><g transform="translate(108.249 59.414)"><path class="p" d="M1870.92,515.635l4.713-2.745c.494-.287.5-1.054,0-.767l-4.713,2.744C1870.426,515.155,1870.424,515.922,1870.92,515.635Z" transform="translate(-1869.59 -505.446)"/><path class="p" d="M1874.459,513.813c1.852-.964,3.686-2.265,5.539-3.271.494-.268.494-1.035,0-.767-1.854,1.006-3.687,2.306-5.539,3.271C1873.966,513.3,1873.968,514.068,1874.459,513.813Z" transform="translate(-1866.77 -507.309)"/><path class="p" d="M1880.765,508.445q-1.164.7-2.324,1.4c-.492.3-.494,1.065,0,.767l2.324-1.4C1881.257,508.914,1881.259,508.147,1880.765,508.445Z" transform="translate(-1863.601 -508.377)"/><path class="p" d="M1877.529,513.4c.494-.3.5-1.067,0-.767-2.4,1.455-4.758,2.682-7.149,4.294-.485.329-.49,1.1,0,.767C1872.771,516.081,1875.129,514.854,1877.529,513.4Z" transform="translate(-1870.014 -505.044)"/><path class="p" d="M1882.215,509.671l-6.73,4.079c-.492.3-.5,1.067,0,.767l6.73-4.079C1882.708,510.14,1882.709,509.373,1882.215,509.671Z" transform="translate(-1865.954 -507.401)"/><path class="p" d="M1878.666,512.65c-2.1,1.221-4.2,2.462-6.306,3.7-.494.291-.494,1.058,0,.767,2.1-1.241,4.2-2.482,6.306-3.7C1879.158,513.13,1879.159,512.363,1878.666,512.65Z" transform="translate(-1868.443 -505.026)"/><path class="p" d="M1879.5,511.238c-.921.481-1.791.984-2.712,1.573-.49.313-.494,1.081,0,.767.921-.589,1.791-1.092,2.712-1.573C1879.995,511.746,1879.993,510.981,1879.5,511.238Z" transform="translate(-1864.914 -506.141)"/></g><path class="o" d="M1923,505.4c.02-3.247.2-7.016.514-11.186a1.649,1.649,0,0,0-2.676-1.408l-5.58,4.506-13.087,5.584a150.918,150.918,0,0,0-.744,19.114L1923,509.552c.02-1.178,0-2.428,0-3.754Z" transform="translate(-1736.825 -461.653)"/><path class="q" d="M1923.44,491.3,1901.8,503.8l0,6.29a25.964,25.964,0,0,0,.445,5.058,21.912,21.912,0,0,0,1.637,5.088l21.657-12.5a22.708,22.708,0,0,1-1.848-6.306,25.6,25.6,0,0,1-.248-3.765Z" transform="translate(-1736.461 -462.555)"/><g transform="translate(166.836 34.46)"><path class="p" d="M1903.538,501.74q2.358-1.371,4.715-2.744c.492-.287.494-1.054,0-.767q-2.357,1.374-4.715,2.744C1903.044,501.261,1903.044,502.028,1903.538,501.74Z" transform="translate(-1902.208 -491.552)"/><path class="p" d="M1907.079,499.919c1.852-.964,3.684-2.265,5.537-3.271.494-.268.494-1.034,0-.767-1.854,1.006-3.685,2.306-5.537,3.271C1906.585,499.409,1906.587,500.174,1907.079,499.919Z" transform="translate(-1899.39 -493.415)"/><path class="p" d="M1913.384,494.551l-2.324,1.4c-.492.3-.494,1.065,0,.767l2.324-1.4C1913.877,495.021,1913.878,494.253,1913.384,494.551Z" transform="translate(-1896.22 -494.483)"/><path class="p" d="M1910.149,499.505c.492-.3.494-1.067,0-.767-2.4,1.455-4.76,2.681-7.149,4.294-.486.329-.492,1.1,0,.767C1905.39,502.187,1907.748,500.96,1910.149,499.505Z" transform="translate(-1902.634 -491.151)"/><path class="p" d="M1914.834,495.777l-6.73,4.079c-.492.3-.494,1.067,0,.767q3.365-2.039,6.73-4.077C1915.326,496.246,1915.328,495.479,1914.834,495.777Z" transform="translate(-1898.573 -493.508)"/><path class="p" d="M1911.284,498.756c-2.1,1.221-4.2,2.462-6.306,3.7-.492.291-.494,1.06,0,.767,2.1-1.239,4.2-2.48,6.306-3.7C1911.778,499.237,1911.778,498.469,1911.284,498.756Z" transform="translate(-1901.062 -491.132)"/><path class="p" d="M1912.121,497.344c-.921.481-1.789.984-2.712,1.573-.488.312-.492,1.081,0,.767.923-.589,1.791-1.092,2.712-1.573C1912.615,497.854,1912.613,497.087,1912.121,497.344Z" transform="translate(-1897.533 -492.248)"/></g><path class="o" d="M1929.378,526.121c.02-3.246.2-7.014.512-11.186a1.648,1.648,0,0,0-2.676-1.406l-5.58,4.506-13.086,5.582a150.819,150.819,0,0,0-.744,19.114l21.575-12.454c.018-1.178,0-2.43,0-3.756Z" transform="translate(-1731.748 -445.156)"/><path class="e" d="M1929.82,512.028l-21.637,12.492,0,6.29a25.956,25.956,0,0,0,.446,5.058,21.861,21.861,0,0,0,1.636,5.086l21.659-12.5a22.634,22.634,0,0,1-1.85-6.306,25.605,25.605,0,0,1-.248-3.763Z" transform="translate(-1731.382 -446.057)"/><g transform="translate(178.293 71.681)"><path class="p" d="M1909.918,522.465q2.357-1.374,4.714-2.745c.494-.287.494-1.054,0-.767q-2.357,1.371-4.714,2.744C1909.424,521.985,1909.424,522.752,1909.918,522.465Z" transform="translate(-1908.588 -512.275)"/><path class="p" d="M1913.458,520.643c1.852-.965,3.684-2.265,5.539-3.271.494-.268.492-1.034,0-.767-1.856,1.006-3.688,2.306-5.539,3.271C1912.964,520.131,1912.966,520.9,1913.458,520.643Z" transform="translate(-1905.768 -514.137)"/><path class="p" d="M1919.763,515.274q-1.162.7-2.324,1.4c-.492.3-.494,1.065,0,.769l2.324-1.4C1920.257,515.744,1920.259,514.977,1919.763,515.274Z" transform="translate(-1902.599 -515.207)"/><path class="p" d="M1916.528,520.229c.492-.3.494-1.067,0-.767-2.4,1.455-4.76,2.682-7.148,4.294-.487.329-.492,1.1,0,.767C1911.769,522.911,1914.129,521.684,1916.528,520.229Z" transform="translate(-1909.013 -511.873)"/><path class="p" d="M1921.213,516.5l-6.73,4.079c-.492.3-.494,1.067,0,.767l6.73-4.079C1921.705,516.97,1921.709,516.2,1921.213,516.5Z" transform="translate(-1904.953 -514.231)"/><path class="p" d="M1917.663,519.48c-2.1,1.221-4.2,2.462-6.3,3.7-.494.291-.5,1.058,0,.767,2.1-1.241,4.2-2.482,6.3-3.7C1918.157,519.96,1918.157,519.193,1917.663,519.48Z" transform="translate(-1907.441 -511.855)"/><path class="p" d="M1918.5,518.067c-.922.481-1.789.986-2.71,1.573-.49.314-.494,1.083,0,.767.921-.587,1.789-1.09,2.71-1.572C1918.994,518.577,1918.992,517.812,1918.5,518.067Z" transform="translate(-1903.912 -512.971)"/></g><path class="o" d="M1849.11,572.92c.02-3.245.2-7.014.512-11.186a1.648,1.648,0,0,0-2.676-1.406l-5.58,4.506-13.086,5.584a150.9,150.9,0,0,0-.744,19.112l21.575-12.454c.018-1.178,0-2.43,0-3.756Z" transform="translate(-1795.648 -407.9)"/><path class="c" d="M1849.551,558.827l-21.637,12.492,0,6.29a25.926,25.926,0,0,0,.446,5.058,21.844,21.844,0,0,0,1.636,5.086l21.659-12.5a22.638,22.638,0,0,1-1.85-6.306,25.572,25.572,0,0,1-.248-3.763Z" transform="translate(-1795.283 -408.801)"/><g transform="translate(34.125 155.736)"><path class="p" d="M1829.649,569.264q2.358-1.374,4.715-2.744c.494-.287.494-1.054,0-.767q-2.357,1.371-4.715,2.745C1829.155,568.782,1829.155,569.551,1829.649,569.264Z" transform="translate(-1828.319 -559.074)"/><path class="p" d="M1833.19,567.442c1.852-.964,3.684-2.265,5.539-3.271.494-.268.492-1.035,0-.767-1.855,1.006-3.687,2.306-5.539,3.271C1832.7,566.932,1832.7,567.7,1833.19,567.442Z" transform="translate(-1825.5 -560.937)"/><path class="p" d="M1839.495,562.073l-2.322,1.4c-.494.3-.5,1.063,0,.767q1.161-.7,2.322-1.4C1839.989,562.543,1839.991,561.776,1839.495,562.073Z" transform="translate(-1822.331 -562.006)"/><path class="p" d="M1836.26,567.028c.493-.3.494-1.067,0-.767-2.4,1.455-4.759,2.68-7.148,4.294-.487.329-.492,1.1,0,.767C1831.5,569.71,1833.861,568.483,1836.26,567.028Z" transform="translate(-1828.745 -558.673)"/><path class="p" d="M1840.945,563.3q-3.365,2.039-6.73,4.077c-.492.3-.494,1.067,0,.769l6.73-4.079C1841.437,563.769,1841.441,563,1840.945,563.3Z" transform="translate(-1824.684 -561.03)"/><path class="p" d="M1837.395,566.279c-2.1,1.221-4.2,2.463-6.3,3.7-.494.291-.5,1.058,0,.767,2.1-1.241,4.2-2.482,6.3-3.7C1837.889,566.759,1837.889,565.992,1837.395,566.279Z" transform="translate(-1827.173 -558.654)"/><path class="p" d="M1838.232,564.867c-.921.48-1.789.984-2.71,1.571-.49.314-.494,1.083,0,.769.921-.589,1.789-1.094,2.71-1.575C1838.726,565.375,1838.724,564.61,1838.232,564.867Z" transform="translate(-1823.644 -559.769)"/></g><path class="o" d="M1855.583,592.376c.02-3.246.2-7.014.512-11.184a1.649,1.649,0,0,0-2.676-1.408l-5.579,4.506-13.086,5.584a150.594,150.594,0,0,0-.745,19.114l21.575-12.456c.018-1.178,0-2.428,0-3.754Z" transform="translate(-1790.494 -392.41)"/><path class="c" d="M1856.024,578.284l-21.636,12.492,0,6.29a25.934,25.934,0,0,0,.444,5.058,21.918,21.918,0,0,0,1.636,5.088l21.659-12.5a22.678,22.678,0,0,1-1.849-6.306,25.137,25.137,0,0,1-.248-3.765Z" transform="translate(-1790.129 -393.311)"/><g transform="translate(45.752 190.683)"><path class="p" d="M1836.124,588.72l4.713-2.744c.494-.287.5-1.054,0-.767l-4.713,2.744C1835.63,588.241,1835.628,589.008,1836.124,588.72Z" transform="translate(-1834.793 -578.532)"/><path class="p" d="M1839.663,586.9c1.852-.965,3.686-2.265,5.539-3.271.494-.268.494-1.035,0-.767-1.854,1.006-3.687,2.306-5.539,3.271C1839.17,586.389,1839.172,587.154,1839.663,586.9Z" transform="translate(-1831.974 -580.395)"/><path class="p" d="M1845.97,581.531q-1.164.7-2.324,1.4c-.494.3-.5,1.065,0,.767l2.324-1.4C1846.462,582,1846.464,581.233,1845.97,581.531Z" transform="translate(-1828.805 -581.463)"/><path class="p" d="M1842.733,586.485c.494-.3.5-1.067,0-.767-2.4,1.455-4.76,2.682-7.148,4.294-.487.329-.49,1.1,0,.767C1837.973,589.167,1840.333,587.94,1842.733,586.485Z" transform="translate(-1835.218 -578.131)"/><path class="p" d="M1847.42,582.757l-6.73,4.079c-.494.3-.5,1.067,0,.767l6.73-4.079C1847.912,583.226,1847.914,582.459,1847.42,582.757Z" transform="translate(-1831.158 -580.487)"/><path class="p" d="M1843.867,585.736c-2.1,1.221-4.2,2.462-6.3,3.7-.492.291-.494,1.06,0,.767,2.1-1.241,4.2-2.482,6.3-3.7C1844.361,586.217,1844.363,585.449,1843.867,585.736Z" transform="translate(-1833.646 -578.112)"/><path class="p" d="M1844.707,584.324c-.923.481-1.791.984-2.712,1.573-.49.312-.494,1.081,0,.767.921-.589,1.789-1.092,2.712-1.573C1845.2,584.832,1845.2,584.067,1844.707,584.324Z" transform="translate(-1830.117 -579.227)"/></g><path class="o" d="M1889.933,577.167c.02-3.247.2-7.014.512-11.186a1.648,1.648,0,0,0-2.676-1.406l-5.581,4.507-13.084,5.582a150.6,150.6,0,0,0-.746,19.114l21.575-12.456c.018-1.178,0-2.428,0-3.754Z" transform="translate(-1763.149 -404.518)"/><path class="c" d="M1890.375,563.074l-21.635,12.492,0,6.292a26.068,26.068,0,0,0,.445,5.056,21.849,21.849,0,0,0,1.637,5.088l21.659-12.5a22.634,22.634,0,0,1-1.848-6.306,25.134,25.134,0,0,1-.248-3.764Z" transform="translate(-1762.784 -405.42)"/><g transform="translate(107.447 163.365)"><path class="p" d="M1870.472,573.51l4.714-2.743c.494-.287.494-1.056,0-.767l-4.714,2.743C1869.98,573.03,1869.978,573.8,1870.472,573.51Z" transform="translate(-1869.143 -563.321)"/><path class="p" d="M1874.012,571.689c1.852-.963,3.685-2.263,5.539-3.269.494-.268.494-1.034,0-.767-1.854,1.006-3.687,2.306-5.539,3.269C1873.52,571.179,1873.522,571.945,1874.012,571.689Z" transform="translate(-1866.323 -565.184)"/><path class="p" d="M1880.318,566.321q-1.161.7-2.322,1.4c-.494.3-.5,1.065,0,.767l2.322-1.4C1880.812,566.792,1880.813,566.023,1880.318,566.321Z" transform="translate(-1863.154 -566.253)"/><path class="p" d="M1877.083,571.275c.492-.3.5-1.067,0-.767-2.4,1.457-4.759,2.682-7.148,4.3-.487.329-.49,1.1,0,.767C1872.324,573.957,1874.683,572.732,1877.083,571.275Z" transform="translate(-1869.568 -562.921)"/><path class="p" d="M1881.77,567.548q-3.368,2.039-6.73,4.077c-.494.3-.5,1.067,0,.767q3.365-2.037,6.73-4.077C1882.262,568.017,1882.263,567.248,1881.77,567.548Z" transform="translate(-1865.508 -565.277)"/><path class="p" d="M1878.218,570.527c-2.1,1.221-4.2,2.462-6.3,3.7-.494.293-.494,1.06,0,.769,2.1-1.241,4.2-2.482,6.3-3.7C1878.712,571.007,1878.714,570.24,1878.218,570.527Z" transform="translate(-1867.996 -562.902)"/><path class="p" d="M1879.057,569.114c-.923.481-1.791.986-2.712,1.573-.49.312-.494,1.083,0,.767.921-.587,1.789-1.092,2.712-1.573C1879.549,569.624,1879.547,568.857,1879.057,569.114Z" transform="translate(-1864.468 -564.017)"/></g><path class="o" d="M1922.092,553.888c.02-3.246.2-7.014.514-11.184a1.649,1.649,0,0,0-2.676-1.408l-5.581,4.506-13.087,5.584a150.888,150.888,0,0,0-.743,19.112l21.573-12.454c.02-1.178,0-2.428,0-3.754Z" transform="translate(-1737.546 -423.05)"/><path class="r" d="M1922.536,539.8,1900.9,552.288l0,6.29a25.924,25.924,0,0,0,.446,5.058,21.9,21.9,0,0,0,1.636,5.088l21.657-12.5a22.721,22.721,0,0,1-1.848-6.308,25.54,25.54,0,0,1-.248-3.763Z" transform="translate(-1737.181 -423.951)"/><g transform="translate(165.211 121.555)"><path class="p" d="M1902.634,550.232q2.357-1.371,4.714-2.744c.494-.287.494-1.054,0-.767l-4.714,2.744C1902.14,549.753,1902.14,550.52,1902.634,550.232Z" transform="translate(-1901.304 -540.044)"/><path class="p" d="M1906.174,548.411c1.852-.964,3.684-2.265,5.537-3.271.494-.268.494-1.034,0-.767-1.853,1.006-3.685,2.306-5.537,3.271C1905.68,547.9,1905.682,548.666,1906.174,548.411Z" transform="translate(-1898.484 -541.906)"/><path class="p" d="M1912.479,543.043l-2.324,1.4c-.492.3-.494,1.065,0,.767l2.324-1.4C1912.971,543.512,1912.973,542.745,1912.479,543.043Z" transform="translate(-1895.315 -542.975)"/><path class="p" d="M1909.244,548c.493-.3.494-1.067,0-.767-2.4,1.455-4.76,2.682-7.148,4.294-.487.329-.492,1.1,0,.767C1904.485,550.679,1906.843,549.452,1909.244,548Z" transform="translate(-1901.729 -539.642)"/><path class="p" d="M1913.929,544.269l-6.73,4.079c-.492.3-.494,1.067,0,.767l6.73-4.079C1914.421,544.738,1914.423,543.971,1913.929,544.269Z" transform="translate(-1897.668 -541.999)"/><path class="p" d="M1910.379,547.248c-2.1,1.221-4.2,2.462-6.306,3.7-.492.291-.494,1.058,0,.767,2.1-1.241,4.2-2.482,6.306-3.7C1910.873,547.728,1910.873,546.961,1910.379,547.248Z" transform="translate(-1900.157 -539.624)"/><path class="p" d="M1911.216,545.836c-.921.481-1.789.984-2.71,1.573-.49.312-.494,1.081,0,.767.921-.589,1.789-1.092,2.71-1.573C1911.71,546.344,1911.708,545.579,1911.216,545.836Z" transform="translate(-1896.628 -540.739)"/></g><path class="o" d="M1871.362,530.145c.016-2.586.162-5.589.408-8.914a1.313,1.313,0,0,0-2.132-1.121l-4.447,3.59-10.426,4.451a119.854,119.854,0,0,0-.593,15.231l17.19-9.925c.014-.94,0-1.936,0-2.992Z" transform="translate(-1774.43 -439.856)"/><path class="s" d="M1871.714,518.915l-17.24,9.954,0,5.013a20.567,20.567,0,0,0,.354,4.029,17.417,17.417,0,0,0,1.3,4.056L1873.388,532a18.11,18.11,0,0,1-1.473-5.025,20.184,20.184,0,0,1-.2-3Z" transform="translate(-1774.14 -440.574)"/><g transform="translate(81.523 82.891)"><path class="p" d="M1855.855,527.232l3.757-2.188c.393-.228.393-.841,0-.611l-3.757,2.186C1855.462,526.849,1855.462,527.46,1855.855,527.232Z" transform="translate(-1854.796 -519.112)"/><path class="p" d="M1858.677,525.78c1.474-.767,2.935-1.8,4.413-2.606.393-.214.393-.824,0-.611-1.478.8-2.939,1.837-4.413,2.606C1858.283,525.374,1858.285,525.984,1858.677,525.78Z" transform="translate(-1852.549 -520.596)"/><path class="p" d="M1863.7,521.5l-1.852,1.115c-.392.235-.393.848,0,.611l1.852-1.115C1864.094,521.877,1864.1,521.265,1863.7,521.5Z" transform="translate(-1850.024 -521.448)"/><path class="p" d="M1861.124,525.45c.391-.239.393-.85,0-.611-1.913,1.158-3.793,2.135-5.7,3.421-.388.262-.391.877,0,.612C1857.331,527.585,1859.211,526.61,1861.124,525.45Z" transform="translate(-1855.134 -518.792)"/><path class="p" d="M1864.857,522.48l-5.363,3.249c-.393.237-.395.849,0,.611l5.363-3.249C1865.249,522.852,1865.251,522.24,1864.857,522.48Z" transform="translate(-1851.899 -520.67)"/><path class="p" d="M1862.027,524.854q-2.511,1.46-5.023,2.951c-.393.232-.393.844,0,.611,1.676-.988,3.35-1.978,5.023-2.951C1862.42,525.236,1862.422,524.624,1862.027,524.854Z" transform="translate(-1853.882 -518.778)"/><path class="p" d="M1862.7,523.727c-.735.384-1.426.785-2.161,1.254-.391.25-.393.862,0,.613.735-.469,1.426-.871,2.161-1.254C1863.089,524.133,1863.087,523.523,1862.7,523.727Z" transform="translate(-1851.07 -519.667)"/></g><path class="o" d="M1870.034,581.484c.016-2.586.162-5.589.41-8.914a1.314,1.314,0,0,0-2.133-1.121l-4.447,3.59-10.426,4.451a119.9,119.9,0,0,0-.593,15.231l17.19-9.927c.015-.938,0-1.934,0-2.991Z" transform="translate(-1775.487 -398.986)"/><path class="s" d="M1870.386,570.253l-17.24,9.956,0,5.013a20.738,20.738,0,0,0,.354,4.029,17.463,17.463,0,0,0,1.3,4.056l17.259-9.965a18.1,18.1,0,0,1-1.473-5.025,20.415,20.415,0,0,1-.2-3Z" transform="translate(-1775.195 -399.705)"/><g transform="translate(79.14 175.1)"><path class="p" d="M1854.528,578.569l3.757-2.186c.393-.23.393-.841,0-.611l-3.757,2.186C1854.135,578.186,1854.135,578.8,1854.528,578.569Z" transform="translate(-1853.469 -570.451)"/><path class="p" d="M1857.349,577.119c1.475-.769,2.935-1.8,4.413-2.606.393-.214.393-.824,0-.611-1.478.8-2.938,1.837-4.413,2.606C1856.956,576.711,1856.958,577.322,1857.349,577.119Z" transform="translate(-1851.222 -571.935)"/><path class="p" d="M1862.375,572.841q-.927.558-1.854,1.114c-.392.237-.393.849,0,.612l1.854-1.115C1862.767,573.215,1862.769,572.6,1862.375,572.841Z" transform="translate(-1848.697 -572.787)"/><path class="p" d="M1859.8,576.79c.391-.239.393-.851,0-.613-1.913,1.16-3.793,2.137-5.7,3.423-.388.262-.392.877,0,.611C1856,578.925,1857.884,577.948,1859.8,576.79Z" transform="translate(-1853.807 -570.132)"/><path class="p" d="M1863.53,573.818l-5.363,3.249c-.393.239-.4.851,0,.612l5.363-3.251C1863.922,574.192,1863.924,573.579,1863.53,573.818Z" transform="translate(-1850.572 -572.01)"/><path class="p" d="M1860.7,576.191c-1.676.974-3.35,1.963-5.025,2.953-.393.232-.393.842,0,.611q2.513-1.485,5.025-2.951C1861.093,576.576,1861.095,575.963,1860.7,576.191Z" transform="translate(-1852.554 -570.117)"/><path class="p" d="M1861.368,575.066c-.734.384-1.426.785-2.161,1.254-.391.25-.393.862,0,.611.735-.469,1.426-.869,2.161-1.254C1861.762,575.472,1861.76,574.862,1861.368,575.066Z" transform="translate(-1849.743 -571.006)"/></g><path class="o" d="M1896.8,557.7c.016-2.588.162-5.589.407-8.914a1.313,1.313,0,0,0-2.132-1.121l-4.447,3.59-10.426,4.449a119.82,119.82,0,0,0-.593,15.231l17.19-9.925c.014-.938,0-1.934,0-2.99Z" transform="translate(-1754.18 -417.919)"/><path class="s" d="M1897.151,546.47l-17.24,9.954,0,5.013a20.593,20.593,0,0,0,.354,4.03,17.392,17.392,0,0,0,1.3,4.054l17.258-9.965a18.024,18.024,0,0,1-1.473-5.024,20.183,20.183,0,0,1-.2-3Z" transform="translate(-1753.89 -418.638)"/><g transform="translate(127.21 132.382)"><path class="p" d="M1881.292,554.787l3.757-2.186c.393-.23.393-.841,0-.613l-3.757,2.188C1880.9,554.4,1880.9,555.016,1881.292,554.787Z" transform="translate(-1880.233 -546.667)"/><path class="p" d="M1884.114,553.336c1.474-.769,2.935-1.805,4.413-2.606.394-.214.394-.825,0-.611-1.478.8-2.938,1.837-4.413,2.6C1883.72,552.928,1883.722,553.539,1884.114,553.336Z" transform="translate(-1877.986 -548.151)"/><path class="p" d="M1889.138,549.057l-1.852,1.115c-.392.237-.393.85,0,.611q.927-.555,1.852-1.114C1889.531,549.432,1889.532,548.82,1889.138,549.057Z" transform="translate(-1875.461 -549.003)"/><path class="p" d="M1886.559,553c.393-.237.395-.85,0-.611-1.913,1.16-3.792,2.137-5.7,3.423-.388.262-.391.875,0,.611C1882.768,555.142,1884.646,554.165,1886.559,553Z" transform="translate(-1880.572 -546.347)"/><path class="p" d="M1890.293,550.035l-5.362,3.249c-.393.239-.4.85,0,.613l5.362-3.251C1890.686,550.409,1890.688,549.8,1890.293,550.035Z" transform="translate(-1877.336 -548.225)"/><path class="p" d="M1887.464,552.408c-1.674.974-3.348,1.963-5.024,2.951-.393.232-.393.844,0,.611,1.676-.988,3.35-1.976,5.024-2.949C1887.857,552.791,1887.859,552.18,1887.464,552.408Z" transform="translate(-1879.319 -546.332)"/><path class="p" d="M1888.132,551.284c-.735.383-1.426.785-2.161,1.254-.391.25-.393.862,0,.611.735-.469,1.426-.871,2.161-1.254C1888.526,551.689,1888.524,551.079,1888.132,551.284Z" transform="translate(-1876.507 -547.221)"/></g><path class="o" d="M1913.536,539.857c.016-2.588.162-5.589.41-8.914a1.313,1.313,0,0,0-2.132-1.121l-4.447,3.59-10.428,4.449a119.855,119.855,0,0,0-.593,15.231l17.19-9.925c.016-.939,0-1.936,0-2.992Z" transform="translate(-1740.856 -432.125)"/><path class="s" d="M1913.889,528.626l-17.242,9.954,0,5.013a20.634,20.634,0,0,0,.355,4.031,17.329,17.329,0,0,0,1.3,4.054l17.259-9.965a18.041,18.041,0,0,1-1.474-5.026,20.409,20.409,0,0,1-.2-3Z" transform="translate(-1740.565 -432.844)"/><g transform="translate(157.271 100.332)"><path class="p" d="M1898.03,536.943q1.878-1.094,3.756-2.186c.393-.23.393-.841,0-.612l-3.756,2.188C1897.637,536.56,1897.635,537.172,1898.03,536.943Z" transform="translate(-1896.969 -528.823)"/><path class="p" d="M1900.851,535.492c1.476-.769,2.937-1.805,4.413-2.606.393-.214.393-.824,0-.612-1.476.8-2.937,1.839-4.413,2.606C1900.458,535.084,1900.459,535.7,1900.851,535.492Z" transform="translate(-1894.723 -530.307)"/><path class="p" d="M1905.876,531.213l-1.852,1.115c-.393.237-.4.85,0,.612q.924-.558,1.852-1.115C1906.267,531.588,1906.27,530.976,1905.876,531.213Z" transform="translate(-1892.198 -531.159)"/><path class="p" d="M1903.3,535.161c.392-.237.394-.85,0-.611-1.913,1.16-3.793,2.137-5.7,3.423-.388.262-.392.875,0,.611C1899.5,537.3,1901.385,536.321,1903.3,535.161Z" transform="translate(-1897.309 -528.503)"/><path class="p" d="M1907.031,532.191l-5.363,3.249c-.392.239-.393.849,0,.611l5.363-3.249C1907.422,532.565,1907.424,531.952,1907.031,532.191Z" transform="translate(-1894.073 -530.381)"/><path class="p" d="M1904.2,534.564c-1.676.974-3.349,1.963-5.025,2.951-.392.232-.393.844,0,.612q2.514-1.484,5.025-2.953C1904.6,534.947,1904.6,534.336,1904.2,534.564Z" transform="translate(-1896.056 -528.488)"/><path class="p" d="M1904.869,533.439c-.735.383-1.426.785-2.161,1.254-.39.248-.393.862,0,.611.735-.469,1.426-.871,2.161-1.254C1905.262,533.845,1905.261,533.235,1904.869,533.439Z" transform="translate(-1893.244 -529.377)"/></g><path class="o" d="M1857.911,554.293c.016-2.586.162-5.589.408-8.914a1.313,1.313,0,0,0-2.132-1.121l-4.447,3.592-10.426,4.449a120.2,120.2,0,0,0-.595,15.231l17.192-9.925c.014-.939,0-1.936,0-2.992Z" transform="translate(-1785.139 -420.632)"/><path class="s" d="M1858.263,543.063l-17.241,9.954,0,5.013a20.611,20.611,0,0,0,.354,4.029,17.467,17.467,0,0,0,1.3,4.056l17.259-9.965a18.04,18.04,0,0,1-1.473-5.025,20.167,20.167,0,0,1-.2-3Z" transform="translate(-1784.847 -421.35)"/><g transform="translate(57.364 126.262)"><path class="p" d="M1842.4,551.378l3.757-2.186c.391-.228.393-.84,0-.611q-1.881,1.094-3.757,2.186C1842.011,551,1842.011,551.608,1842.4,551.378Z" transform="translate(-1841.345 -543.26)"/><path class="p" d="M1845.226,549.928c1.474-.769,2.935-1.8,4.413-2.606.393-.214.393-.824,0-.611-1.478.8-2.938,1.837-4.413,2.606C1844.833,549.522,1844.833,550.133,1845.226,549.928Z" transform="translate(-1839.098 -544.744)"/><path class="p" d="M1850.249,545.65l-1.852,1.115c-.391.235-.393.848,0,.611l1.852-1.115C1850.643,546.025,1850.645,545.413,1850.249,545.65Z" transform="translate(-1836.573 -545.596)"/><path class="p" d="M1847.671,549.6c.393-.239.4-.851,0-.611-1.913,1.158-3.792,2.135-5.7,3.422-.388.262-.391.877,0,.613C1843.88,551.735,1845.759,550.758,1847.671,549.6Z" transform="translate(-1841.684 -542.94)"/><path class="p" d="M1851.4,546.627l-5.361,3.251c-.393.237-.395.849,0,.611l5.361-3.249C1851.8,547,1851.8,546.388,1851.4,546.627Z" transform="translate(-1838.448 -544.819)"/><path class="p" d="M1848.576,549q-2.511,1.46-5.023,2.951c-.393.232-.4.844,0,.611,1.674-.988,3.349-1.977,5.023-2.951C1848.969,549.384,1848.971,548.772,1848.576,549Z" transform="translate(-1840.431 -542.926)"/><path class="p" d="M1849.245,547.875c-.735.384-1.426.785-2.161,1.254-.392.25-.393.862,0,.611.735-.467,1.426-.869,2.161-1.254C1849.636,548.281,1849.636,547.671,1849.245,547.875Z" transform="translate(-1837.619 -543.815)"/></g><path class="o" d="M1902.934,516.691c.016-2.588.161-5.589.408-8.914a1.314,1.314,0,0,0-2.132-1.123l-4.447,3.592-10.426,4.449a120.243,120.243,0,0,0-.594,15.231L1902.934,520c.014-.939,0-1.934,0-2.992Z" transform="translate(-1749.297 -450.567)"/><path class="s" d="M1903.285,505.46l-17.24,9.954,0,5.013a20.659,20.659,0,0,0,.354,4.03,17.409,17.409,0,0,0,1.3,4.054l17.259-9.965a18.054,18.054,0,0,1-1.473-5.025,20.169,20.169,0,0,1-.2-3Z" transform="translate(-1749.005 -451.286)"/><g transform="translate(138.229 58.724)"><path class="p" d="M1887.427,513.777l3.757-2.188c.394-.228.394-.841,0-.611l-3.757,2.186C1887.034,513.394,1887.034,514.005,1887.427,513.777Z" transform="translate(-1886.367 -505.657)"/><path class="p" d="M1890.249,512.324c1.474-.767,2.935-1.8,4.413-2.6.393-.214.393-.824,0-.612-1.478.8-2.938,1.837-4.413,2.606C1889.855,511.918,1889.857,512.529,1890.249,512.324Z" transform="translate(-1884.121 -507.141)"/><path class="p" d="M1895.273,508.047l-1.852,1.115c-.391.237-.393.849,0,.611l1.852-1.114C1895.666,508.422,1895.668,507.81,1895.273,508.047Z" transform="translate(-1881.596 -507.993)"/><path class="p" d="M1892.694,511.995c.393-.237.4-.85,0-.611-1.913,1.16-3.792,2.137-5.7,3.423-.388.261-.392.875,0,.611C1888.9,514.132,1890.781,513.155,1892.694,511.995Z" transform="translate(-1886.707 -505.337)"/><path class="p" d="M1896.428,509.025l-5.361,3.249c-.393.237-.4.849,0,.611l5.361-3.249C1896.821,509.4,1896.823,508.786,1896.428,509.025Z" transform="translate(-1883.471 -507.215)"/><path class="p" d="M1893.6,511.4c-1.674.973-3.35,1.963-5.024,2.951-.393.232-.393.844,0,.611,1.674-.988,3.35-1.977,5.024-2.951C1893.991,511.781,1893.994,511.169,1893.6,511.4Z" transform="translate(-1885.453 -505.323)"/><path class="p" d="M1894.267,510.272c-.735.384-1.426.787-2.161,1.254-.391.25-.393.864,0,.612.735-.469,1.426-.871,2.161-1.254C1894.661,510.68,1894.659,510.069,1894.267,510.272Z" transform="translate(-1882.641 -506.212)"/></g></g><g transform="translate(89.393 149.882)"><g transform="translate(87.565 217.902)"><path class="t" d="M1960.138,723.065c2.019-1.516,2.3-9.05-5.882-10.349-5.086-.808-19.126,4.269-25.626,7.549-.512,2.809-.909,5.39.876,7.615,1.875,2.337,5.34,2.52,8.316,2.179C1942.963,729.47,1956.673,725.671,1960.138,723.065Z" transform="translate(-1892.406 -654.144)"/><path class="t" d="M1934.2,719.631c2.5-2.382,1.548-10.245-5.043-10.326-4.8-.057-12.282,9.352-17.979,13.041-.2,2.653-.307,5.087,1.57,6.971,1.972,1.979,5.2,1.8,7.926,1.191C1925.385,729.45,1931.278,722.418,1934.2,719.631Z" transform="translate(-1906.032 -656.791)"/><path class="u" d="M1959.9,721.133c2-1.505,2.516-7.6-5.6-8.889-5.049-.8-19.224,2.854-25.673,6.11-.509,2.786-.9,5.349.871,7.558,1.861,2.319,5.3,2.5,8.251,2.161C1942.854,727.487,1956.46,723.719,1959.9,721.133Z" transform="translate(-1892.406 -654.541)"/><path class="u" d="M1934.2,716.9c1.719-1.607,1.588-7.351-6.123-7.741-4.794-.243-11.2,6.766-16.9,10.453-.2,2.655-.307,5.088,1.57,6.972,1.972,1.979,5.2,1.8,7.926,1.191C1925.385,726.714,1931.251,719.656,1934.2,716.9Z" transform="translate(-1906.032 -656.915)"/><path class="v" d="M1934.968,693.463a11,11,0,0,1,6.624,7.68c3.827,16.235,9.516,36.107,9.7,39.358.156,2.694-3.677,5.063-6.3,5.688-5.293,1.263-6.91.262-8.4-1.8-.889-1.227-13.8-32.233-18.036-58.508C1923.877,689.908,1929.3,691.193,1934.968,693.463Z" transform="translate(-1900.083 -675.435)"/><path class="v" d="M1926.733,687.17c-.449,25.282,1.777,54.81.9,57.839-1.577,4.158-13.246,4.977-14.026,1.281a408.743,408.743,0,0,1-5.322-66.223C1914.74,683.855,1920.748,682.653,1926.733,687.17Z" transform="translate(-1908.269 -680.067)"/></g><g transform="translate(176.521)"><g transform="translate(22.546 57.917)"><path class="w" d="M2033.05,646.164a4.975,4.975,0,0,0,2.105-2.955l5.115-20.386,1.482-.275,3.1,1.805-5.114,20.42a8.4,8.4,0,0,1-3.581,5l-11.524,6.653-3.106-1.8-.005-1.811Z" transform="translate(-1929.608 -565.871)"/><g transform="translate(0 55.7)"><path class="w" d="M2005.754,628.242a5.019,5.019,0,0,0-2.234-3.154l-2.38-1.385a5.019,5.019,0,0,1,2.232,3.154l11.175,40.478,2.382,1.383Z" transform="translate(-1945.838 -620.652)"/><path class="w" d="M1981.386,640.083l-11.037,53.88,2.381,1.384,11.795-54.638Z" transform="translate(-1970.35 -607.612)"/><path class="w" d="M2022.124,622.724c-1.961-1.139-4.668-.948-7.585.735L1986.748,639.5c-4.787,2.764-9.018,8.93-10.254,14.97l3.118,1.81c1.236-6.042,4.729-12.634,9.518-15.4l27.79-16.046c2.915-1.683,5.624-1.873,7.585-.733Z" transform="translate(-1965.458 -622.005)"/><path class="w" d="M2031.061,627.332c-1.264-4.6-5.5-5.875-10.3-3.1l-27.79,16.044c-4.789,2.764-9.018,8.93-10.254,14.972l-11.037,53.879,1.983-1.146,10.909-53.227c1.024-4.959,4.48-10.015,8.4-12.281l27.791-16.045c3.941-2.274,7.415-1.219,8.447,2.554l11.175,40.477,1.983-1.146Z" transform="translate(-1969.294 -621.391)"/></g><path class="w" d="M2012.047,634.038a4.96,4.96,0,0,0,2.1-2.954l5.115-20.386,1.482-.275,3.106,1.8-5.115,20.42a8.4,8.4,0,0,1-3.582,5l-11.523,6.653-3.105-1.8-.006-1.81Z" transform="translate(-1946.329 -575.525)"/><g class="x" transform="translate(7.816 57.672)"><path class="y" d="M1974.882,654.567c.06-.124.771-1.489.771-1.489a19.677,19.677,0,0,1,2.6-3.829,13.211,13.211,0,0,1,3.251-2.743l40.36-23.3a.556.556,0,0,1,.573-.039l52.052,30.221a.557.557,0,0,0-.573.039l-40.359,23.3a13.129,13.129,0,0,0-3.249,2.743,19.548,19.548,0,0,0-2.6,3.829l-.711,1.365c-.325.724-.3,1.379.005,1.638.031.02-52.022-30.2-52.022-30.2A1.358,1.358,0,0,1,1974.882,654.567Z" transform="translate(-1974.701 -623.103)"/><path class="w" d="M2003.924,671.269l.711-1.365a16.25,16.25,0,0,1,5.85-6.572l40.359-23.3c.464-.266.87.009.872.629a2.053,2.053,0,0,1-.864,1.654l-40.36,23.3a12.814,12.814,0,0,0-4.619,5.218l-.71,1.365a1.655,1.655,0,0,1-.616.666.555.555,0,0,1-.618.045A1.455,1.455,0,0,1,2003.924,671.269Z" transform="translate(-1951.631 -609.707)"/></g><g transform="translate(54.261 87.027)"><path class="w" d="M2035.963,645.682a5.018,5.018,0,0,0-2.232-3.152l-2.382-1.385a5.029,5.029,0,0,1,2.234,3.154l11.173,40.478,2.381,1.383Z" transform="translate(-1976.049 -638.094)"/><path class="w" d="M2011.6,657.525l-11.037,53.88,2.381,1.384,11.795-54.638Z" transform="translate(-2000.56 -625.054)"/><path class="w" d="M2052.333,640.166c-1.959-1.139-4.668-.948-7.583.735l-27.791,16.046c-4.788,2.764-9.02,8.93-10.254,14.97l3.118,1.81c1.234-6.042,4.729-12.634,9.516-15.4l27.791-16.046c2.917-1.683,5.624-1.873,7.585-.733Z" transform="translate(-1995.667 -639.447)"/><path class="w" d="M2061.272,644.772c-1.266-4.6-5.5-5.873-10.306-3.1l-27.791,16.045c-4.787,2.764-9.018,8.93-10.254,14.972l-11.037,53.879,1.985-1.146,10.908-53.227c1.024-4.959,4.479-10.015,8.406-12.282l27.791-16.044c3.939-2.274,7.413-1.219,8.445,2.552l11.176,40.478,1.983-1.146Z" transform="translate(-1999.505 -638.833)"/></g><path class="z" d="M2056.669,614.939c-6.065-3.5-22.776-13.149-39.957-23.071a5.566,5.566,0,0,0-4.614-.632l-1.915.753,39.437,74.43.451-.147a18.88,18.88,0,0,0,2.748-1.286,6.742,6.742,0,0,0,2.687-4.537c.2-1.126,6.017-34.345,6.017-34.345A11.266,11.266,0,0,0,2056.669,614.939Z" transform="translate(-1938.638 -590.993)"/><path class="aa" d="M2058.771,615.307l-39.958-23.069a5.086,5.086,0,0,0-4.156-.6c-2.757,1.027-3.565,3.323-3.962,5.207-.641,3.659-5.4,30.807-6.011,34.314-.1.566-.1.566-.005.032a11.3,11.3,0,0,0,4.885,11.182l39.958,23.069a5.5,5.5,0,0,0,4.573.625c1.773-.577,3.154-2.3,3.605-4.866l6.011-34.314C2064.481,622.494,2062.267,617.325,2058.771,615.307Z" transform="translate(-1943.113 -590.646)"/></g><g transform="translate(21.286 108.605)"><g transform="translate(0 79.741)"><g transform="translate(0 13.605)"><path class="ab" d="M1997.566,672.862s.073.941.151,1.351c-.106,1.085-.054,3.319-.963,4.083-2.179,1.832-4.14,2.242-6.562,4.138-1.734,1.36-4.482,3.736-6.619,4.449a22,22,0,0,1-7.736,1.083c-3.014-.266-6.132-1.841-6.186-4.427-.041-1.938.313-2.655.5-2.78,1.579-1.079,8.968-2.024,12.208-3.517,3.429-1.58,6.9-3.05,10.2-4.761C1994.037,671.713,1998.21,669.807,1997.566,672.862Z" transform="translate(-1969.648 -671.186)"/></g><g transform="translate(0.327)"><path class="ac" d="M1985.364,663.611c-.138,1.313-.286,2.628-.411,3.941-.314,3.249-.654,6.59-2.153,9.491-1.573,3.039-16.111,6.974-12.35,11.881a4.076,4.076,0,0,0,1.658,1.151,13.758,13.758,0,0,0,11.933-.508c2.969-1.62,5.286-4.323,8.393-5.661a13.52,13.52,0,0,0,3.578-1.7c2.838-2.4,1.354-6.9,1.144-10.608a20.3,20.3,0,0,1,.778-6.037Z" transform="translate(-1969.831 -663.611)"/></g></g><g transform="translate(24.121 92.989)"><g transform="translate(0 12.983)"><path class="ab" d="M2010.406,679.831s.126.936.224,1.34c-.047,1.09.129,3.319-.736,4.131-2.075,1.947-4.011,2.464-6.328,4.49-1.658,1.451-4.269,3.977-6.365,4.8a22,22,0,0,1-7.664,1.507c-3.025-.1-6.225-1.505-6.421-4.083-.146-1.933.169-2.669.345-2.8,1.516-1.166,8.844-2.513,12-4.18,3.339-1.767,6.721-3.423,9.927-5.313C2006.821,678.876,2010.88,676.745,2010.406,679.831Z" transform="translate(-1983.078 -678.215)"/></g><g transform="translate(0.234)"><path class="ac" d="M1997.428,670.987c-.067,1.318-.14,2.64-.2,3.957-.135,3.262-.291,6.615-1.631,9.595-1.4,3.122-15.7,7.845-11.682,12.538a4.093,4.093,0,0,0,1.719,1.06,13.757,13.757,0,0,0,11.886-1.16c2.877-1.78,5.044-4.607,8.072-6.112a13.557,13.557,0,0,0,3.481-1.893c2.7-2.554.973-6.96.56-10.654a20.307,20.307,0,0,1,.447-6.071Z" transform="translate(-1983.208 -670.987)"/></g></g><path class="ad" d="M1979,653.543c16.772-14.022,27.286-19.764,34.722-26.523.774-.7,1.26-6.924,1.289-7.806.756,1.078,1.427,3.166,2.22,4.618,3.362,6.139,10.527,9.063,18.568,10.963,6.807,1.609,14.829,3.371,21.178,4.19-.039,1.173,2.245,7.262-1.338,14.238-2.624,5.11-25.585,20.4-33.457,25.583a7.05,7.05,0,0,0-3.16,5.521l-2.168,40.978c-1.577,4.733-14.836,3.183-14.67-1.385,0,0-4.645-42.774-4.275-51.718a5.587,5.587,0,0,1,2.026-4.09,205.844,205.844,0,0,1,17.4-13.828c1.809-1.275,1.746-1.606-.374-.318-10.144,6.164-18.076,11.423-20.84,13.334a1.1,1.1,0,0,0-.472.894l-1.855,43.5c-2.485,6.1-15.114,3.973-15.34-1l-3.2-49.538A10.469,10.469,0,0,1,1979,653.543Z" transform="translate(-1965.197 -619.214)"/></g><g transform="translate(0 31.679)"><path class="ae" d="M2036.94,588.294c-2.973,3.463,1.031,4.469-2.27,6.929-2.633,1.963-20.883,13.568-27.976,18.067a8.122,8.122,0,0,1-6.073,1.078L1968.707,607c-3.574-1.18-.234-13.061,4.045-11.617l27.689,5.729c5.491-4.32,17.427-17.912,24.816-23.827,2.526-1.827,6.265-.8,9.135,2.347C2034.4,579.642,2039.168,585.7,2036.94,588.294Z" transform="translate(-1950.314 -576.385)"/><path class="af" d="M1972.186,587.565c3.039,2.594-1.151,10.865-3,10.083L1968,597.17c-2.892-1.18.977-10.584,3.19-9.968A3.575,3.575,0,0,1,1972.186,587.565Z" transform="translate(-1950.499 -567.796)"/><path class="ag" d="M1977.985,589.689c-.49-.3-1-.573-1-.573s-2.082-1.6-3.626-2.91a4.826,4.826,0,0,0-2.333-1.07c-2.509-.42-4.683-.059-5.732,1.239a15.868,15.868,0,0,0-1.923.018,8.413,8.413,0,0,0-2.858,1.088c-.786.348-1.769.442-1.981,1.473-.048.233-.03.478-.1.706-.128.426-.532.733-.618,1.167a1.694,1.694,0,0,0,.071.726l.437,1.773a2.922,2.922,0,0,0,1.327,2.069c.9.413,5.88.914,6.857,1.031a78.674,78.674,0,0,1,9.088,1.9C1977.533,598.792,1980.36,591.837,1977.985,589.689Z" transform="translate(-1957.797 -569.55)"/></g><g transform="translate(65.842 30.348)"><path class="ah" d="M1997.925,660.962c-.728-2.951,8.005-34.167,7.281-44.582-.1-5.361-.079-10.59.142-15.213.379-7.881-.241-7.56,2.272-15.216,1.48-4.51,3.143-8.549,9.986-6.631a17.236,17.236,0,0,1,4.751,2.335,21.3,21.3,0,0,0,2.919,1.423,26.583,26.583,0,0,1,3.586,2.417c3.829,2.588-.275,12.477-3.22,19.3-.553,2.188,12.011,61.487,11.271,64.621-1.945.751-9.078,5.189-25.907.661C2000.233,667.18,1997.882,662.772,1997.925,660.962Z" transform="translate(-1991.727 -573.107)"/><path class="ai" d="M2012.607,615.43c1.883-5.295,2.542-11.112,4.864-16.28,1.746-3.21,3.337-6.647,3.633-10.134a12.9,12.9,0,0,0-1.8-7.587,171.413,171.413,0,0,1,14.874,10.114,7.944,7.944,0,0,1,3.069,7.705c-1.313,7.412-5.864,20.8-6.31,41.12.128,11.838-.086,14.1,2.23,34.571-.589,1.977-12.975,7.671-25.624,4.677,0-17.824,1-27.757.715-36.225l0-.163c-.262-9.349,2.08-18.767,4.348-27.769C2012.61,615.448,2012.605,615.441,2012.607,615.43Z" transform="translate(-1984.033 -571.036)"/><path class="ai" d="M1994.457,665.955c.516-7.438,3.648-15.5,4.443-28.482.573-9.329-.826-22.406-1.7-33.948-.512-6.777,2.207-22.747,7.225-26.56,1.787-1.557,8.436.149,16.1,3.635-4.7,1.06-9.4,2.529-11.242,7.323-1.908,4.981-1.852,6.827-1.466,20.118a189.078,189.078,0,0,0,.316,20.285,39.546,39.546,0,0,1-.309,9.1c-2.026,12.97-8.928,35.525-9.124,36.15C1996.055,671.269,1994.4,666.779,1994.457,665.955Z" transform="translate(-1994.455 -575.053)"/><g transform="translate(14.543 15.965)"><path class="q" d="M2005.228,592.086a11.3,11.3,0,0,1-1.1-5.065c.142-1.367-.009-2.9,1.41-2.391a17.87,17.87,0,0,1,4.733,2.416c1.331,1.184,1.1,2.34.876,3.82C2010.756,593.5,2006.4,594.831,2005.228,592.086Z" transform="translate(-2001.316 -584.532)"/><path class="q" d="M2002.552,638.535l4.659-51.478,2.664,1.588-1.746,52.956a54.7,54.7,0,0,1-3.906,5.606A85.991,85.991,0,0,1,2002.552,638.535Z" transform="translate(-2002.552 -582.522)"/></g><path class="ac" d="M2003.226,582.069c2.113-2.421,4.809-4.12,7.648-2.608,0,0-7.1,8.582-7.078,10.9.185,19.089,2.744,24.384-1.139,48.182-1.194-22.9-1.7-33.269-2.3-44.272C2000.125,589.847,2000.313,585.412,2003.226,582.069Z" transform="translate(-1989.812 -573.059)"/><path class="ac" d="M2020.218,590.086c2.583-3.959,1.063-7.73.465-8.111,6.2,2.911,6.055,9.677,4.691,12.74-2.933,6.591-8.143,16.125-11.238,22.634-3.846,8.093-5.268,14.71-6.006,26.832C2006.135,632.867,2013.427,599.408,2020.218,590.086Z" transform="translate(-1983.835 -570.603)"/><path class="ah" d="M2007.739,583.453c.041-.16.09-.316.14-.471.194-.573,1.577-2.739,1.523-3.342s-1.861-.269-3.423,1.943c-1.045,1.484-4.819,10.789-4.819,10.789s8.952-2.915,9.014-3.165c.146-.587-2.482-2.813-2.59-3.484A5.552,5.552,0,0,1,2007.739,583.453Z" transform="translate(-1989.118 -572.677)"/><path class="aj" d="M2022.98,576.588c-.833-1.356-3.314-.844-4.814-.873-2.357-.043-4.72-.074-7.073.056-.578.032-3.493-.052-3.678.8-.324,1.491-2.281,4.643-2.436,6.161-.971,4.986-.492,8.178,2.516,9.444l2.139,1.32c6.859,4.761,11.915-2.33,13.038-3.095-.481-5.55.9-11.021.555-13.117A1.925,1.925,0,0,0,2022.98,576.588Z" transform="translate(-1986.438 -575.643)"/><path class="ah" d="M2006.162,588.02l7.032,9.929c5.029-1.942,6.719-4.005,8.928-6.294,2.046-2.118,3.079-5.5,2.3-6.917a14.132,14.132,0,0,0-3.073-3.815C2021.246,588.75,2010.792,589.807,2006.162,588.02Z" transform="translate(-1985.136 -571.439)"/></g><path class="ag" d="M2007.424,598.182c4.325.557,14.149-1.114,15.288-4.284,1.916-5.333,3.77-10.827,1.363-17.7a17.475,17.475,0,0,0-5.083-7.57,22.845,22.845,0,0,0-5.67-3.247c-5.74-2.491-10.7-2.2-11,3.684a73.7,73.7,0,0,0-.235,8.772C2002.691,587.305,2003.552,597.683,2007.424,598.182Z" transform="translate(-1922.594 -554.641)"/><path class="w" d="M2019.264,558.932c-17.78-1.683-20.2,8.512-16.362,12.731,2.252,1.277,5.034,2.168,7.8,3.522a8.069,8.069,0,0,1,4.47,6.439c.266,2.8.009,5.81.385,7.13.117.408,1.031.943,1.635-.1.706-1.221.325-5.016,3.6-4.21,3.934.966.065,12.91,3.24,11.344,5.337-2.331,6.753-7.912,7.626-11.324C2032.882,579.674,2037.345,560.644,2019.264,558.932Z" transform="translate(-1923.135 -558.747)"/><g transform="translate(75.306 51.087)"><path class="ae" d="M2045.291,601.115c-1.144,3.066-7.312,24-10.453,32.066-.823,2.114-26.106,22.852-26.106,22.852-2.85,2.461-11.326-6.511-7.888-9.44l21.37-20.977c2.572-6.5,7.172-23.825,10.581-32.655,1.265-2.849,3.921-6.8,7.983-5.525C2040.788,587.44,2048.705,591.977,2045.291,601.115Z" transform="translate(-1999.477 -587.19)"/><path class="af" d="M2000.834,621.141c3.357-1.566,8.709,6.631,6.859,7.942l-.771.587c-2.5,1.873-8.578-6.277-6.913-7.86A4.946,4.946,0,0,1,2000.834,621.141Z" transform="translate(-1999.725 -560.32)"/></g></g><g transform="translate(47.143 87.862)"><path class="ak" d="M1890.579,777.863l132.412-76.589.244-86.156-132.411,76.589Z" transform="translate(-1881.931 -601.733)"/><path class="i" d="M1994.485,746.939,2126.9,670.35l-108.572-62.684-132.412,76.589Z" transform="translate(-1885.645 -607.665)"/><g transform="translate(0 61.242)"><g transform="translate(0 0)"><path class="al" d="M1946.213,814.3l132.412-76.856.268-94.876-132.412,76.856Z" transform="translate(-1838.488 -642.566)"/><path class="al" d="M1886.032,650.308l-.268,94.547,8.649,4.993.244-86.156,91.253,52.685-.244,86.156,8.67,5.006.268-94.547Z" transform="translate(-1885.764 -635.807)"/></g></g></g><path class="am" d="M1979.7,626.487h-38.851l-.787.454,47.223,27.265h33.233a.132.132,0,0,0,.073-.241Z" transform="translate(-1795.397 -504.819)"/><g transform="translate(80.995 121.806)"><g transform="translate(38.231)"><path class="an" d="M1972.007,653.035l-45.55-26.471-.56.111,45.551,26.471Z" transform="translate(-1925.897 -626.564)"/></g><g transform="translate(0 55.304)"><path class="ao" d="M1950.162,683.827l-45.551-26.471,0,1.313,45.551,26.471Z" transform="translate(-1904.611 -657.356)"/></g><g transform="translate(0 38.228)"><path class="ap" d="M1979.739,674.319l-45.55-26.471-29.578,17.076,45.551,26.471Z" transform="translate(-1904.611 -647.848)"/></g><path class="aq" d="M1975.507,653.1l-45.551-26.471-9.157,38.4,45.818,26.626Z" transform="translate(-1891.725 -626.515)"/><path class="ar" d="M1973.864,652.907l-43.755-25.428-8.677,36.379,43.755,25.429Z" transform="translate(-1891.221 -625.836)"/><path class="an" d="M1968.762,641.3l-.559.111-9.14,38.368-29.091,16.826,0,1.313,29.628-17.106a3,3,0,0,0,1.284-2.29,1.013,1.013,0,0,0-.295-.794Z" transform="translate(-1884.422 -614.831)"/><path class="as" d="M1962.495,673.084l1.557-.9a.718.718,0,0,1,.652,0l1.852,1.069a.2.2,0,0,1,0,.375l-1.557.9a.719.719,0,0,1-.652,0l-1.852-1.069A.2.2,0,0,1,1962.495,673.084Zm-2.99-1.349,1.852,1.069a.719.719,0,0,0,.652,0l1.557-.9a.2.2,0,0,0,0-.375l-1.852-1.07a.73.73,0,0,0-.652,0l-1.557.9A.2.2,0,0,0,1959.5,671.735Zm-2.99-1.728,1.852,1.07a.73.73,0,0,0,.652,0l1.557-.9a.2.2,0,0,0,0-.377l-1.852-1.069a.72.72,0,0,0-.652,0l-1.557.9A.2.2,0,0,0,1956.514,670.007Zm-2.991-1.726,1.852,1.069a.718.718,0,0,0,.652,0l1.557-.9a.2.2,0,0,0,0-.377l-1.852-1.069a.719.719,0,0,0-.652,0l-1.557.9A.2.2,0,0,0,1953.523,668.281Zm-2.99-1.726,1.852,1.069a.719.719,0,0,0,.652,0l1.559-.9a.2.2,0,0,0,0-.377l-1.854-1.069a.716.716,0,0,0-.65,0l-1.559.9A.2.2,0,0,0,1950.533,666.555Zm-2.989-1.726,1.852,1.069a.719.719,0,0,0,.652,0l1.557-.9a.2.2,0,0,0,0-.375l-1.852-1.07a.73.73,0,0,0-.652,0l-1.557.9A.2.2,0,0,0,1947.544,664.829Zm-2.99-1.728,1.852,1.07a.719.719,0,0,0,.652,0l1.557-.9a.2.2,0,0,0,0-.375l-1.852-1.071a.719.719,0,0,0-.652,0l-1.557.9C1944.373,662.83,1944.373,663,1944.554,663.1Zm-2.99-1.726,1.852,1.071a.73.73,0,0,0,.652,0l1.557-.9a.2.2,0,0,0,0-.377l-1.852-1.069a.72.72,0,0,0-.652,0l-1.557.9A.2.2,0,0,0,1941.564,661.375Zm-2.991-1.726,1.852,1.069a.72.72,0,0,0,.652,0l1.557-.9a.2.2,0,0,0,0-.377l-1.852-1.069a.719.719,0,0,0-.652,0l-1.557.9A.2.2,0,0,0,1938.573,659.649Zm-3.955-2.283,2.816,1.626a.719.719,0,0,0,.652,0l1.557-.9c.182-.1.182-.271,0-.375l-2.816-1.625a.714.714,0,0,0-.65,0l-1.559.9A.2.2,0,0,0,1934.618,657.366Zm-12.837,2.057,1.852,1.07a.719.719,0,0,0,.652,0l1.557-.9a.2.2,0,0,0,0-.375l-1.852-1.07a.731.731,0,0,0-.652,0l-1.557.9C1921.6,659.151,1921.6,659.32,1921.781,659.423Zm-2.991-1.726,1.852,1.071a.73.73,0,0,0,.652,0l1.557-.9a.2.2,0,0,0,0-.377L1921,656.421a.72.72,0,0,0-.652,0l-1.557.9A.2.2,0,0,0,1918.791,657.7Zm-2.99-1.726,1.852,1.069a.719.719,0,0,0,.652,0l1.557-.9a.2.2,0,0,0,0-.377l-1.852-1.069a.719.719,0,0,0-.652,0l-1.557.9A.2.2,0,0,0,1915.8,655.971Zm3.247,5.031,1.852,1.07a.73.73,0,0,0,.652,0l1.557-.9a.2.2,0,0,0,0-.377l-1.852-1.069a.719.719,0,0,0-.652,0l-1.557.9A.2.2,0,0,0,1919.048,661Zm-2.99-1.726,1.852,1.069a.72.72,0,0,0,.652,0l1.557-.9a.2.2,0,0,0,0-.377L1918.266,658a.72.72,0,0,0-.652,0l-1.557.9A.2.2,0,0,0,1916.057,659.275Zm-2.991-1.726,1.852,1.069a.719.719,0,0,0,.652,0l1.557-.9a.2.2,0,0,0,0-.375l-1.852-1.069a.72.72,0,0,0-.652,0l-1.557.9A.2.2,0,0,0,1913.067,657.549Zm45.68,16.915,2.814,1.625a.72.72,0,0,0,.652,0l1.557-.9a.2.2,0,0,0,0-.377l-2.817-1.626a.714.714,0,0,0-.65,0l-1.557.9A.2.2,0,0,0,1958.747,674.465Zm-2.99-1.726,1.852,1.069a.718.718,0,0,0,.652,0l1.557-.9a.2.2,0,0,0,0-.377l-1.852-1.069a.72.72,0,0,0-.652,0l-1.557.9C1955.575,672.466,1955.575,672.635,1955.756,672.739Zm-2.991-1.726,1.852,1.069a.718.718,0,0,0,.652,0l1.557-.9a.2.2,0,0,0,0-.375l-1.852-1.069a.719.719,0,0,0-.652,0l-1.557.9A.2.2,0,0,0,1952.766,671.013Zm-2.99-1.726,1.852,1.069a.719.719,0,0,0,.652,0l1.557-.9a.2.2,0,0,0,0-.375l-1.852-1.07a.73.73,0,0,0-.652,0l-1.557.9A.2.2,0,0,0,1949.775,669.287Zm-2.99-1.728,1.852,1.07a.719.719,0,0,0,.652,0l1.557-.9c.181-.1.181-.273,0-.375l-1.852-1.071a.72.72,0,0,0-.652,0l-1.557.9A.2.2,0,0,0,1946.785,667.559Zm-2.991-1.726,1.854,1.069a.716.716,0,0,0,.65,0l1.557-.9a.2.2,0,0,0,0-.377L1946,664.558a.719.719,0,0,0-.652,0l-1.557.9A.2.2,0,0,0,1943.794,665.833Zm-2.99-1.726,1.854,1.069a.716.716,0,0,0,.65,0l1.559-.9a.2.2,0,0,0,0-.377l-1.854-1.069a.715.715,0,0,0-.65,0l-1.559.9A.2.2,0,0,0,1940.8,664.107Zm-2.989-1.726,1.852,1.069a.72.72,0,0,0,.652,0l1.557-.9a.2.2,0,0,0,0-.376l-1.852-1.069a.72.72,0,0,0-.652,0l-1.557.9A.2.2,0,0,0,1937.815,662.381Zm-2.991-1.726,1.852,1.069a.719.719,0,0,0,.652,0l1.557-.9a.2.2,0,0,0,0-.375l-1.852-1.071a.719.719,0,0,0-.652,0l-1.558.9A.2.2,0,0,0,1934.824,660.655Zm-2.99-1.728,1.852,1.07a.73.73,0,0,0,.652,0l1.557-.9a.2.2,0,0,0,0-.375l-1.852-1.071a.72.72,0,0,0-.652,0l-1.557.9A.2.2,0,0,0,1931.834,658.927Zm25.228,17.67,1.852,1.07a.715.715,0,0,0,.65,0l1.559-.9a.2.2,0,0,0,0-.375l-1.853-1.071a.716.716,0,0,0-.65,0l-1.557.9C1956.88,676.326,1956.88,676.494,1957.062,676.6Zm-2.99-1.726,1.852,1.07a.73.73,0,0,0,.652,0l1.557-.9a.2.2,0,0,0,0-.377l-1.852-1.069a.72.72,0,0,0-.652,0l-1.557.9A.2.2,0,0,0,1954.071,674.871Zm-2.991-1.726,1.852,1.069a.718.718,0,0,0,.652,0l1.557-.9a.2.2,0,0,0,0-.377l-1.852-1.069a.719.719,0,0,0-.652,0l-1.557.9A.2.2,0,0,0,1951.081,673.145Zm-2.99-1.726,1.852,1.069a.719.719,0,0,0,.652,0l1.557-.9a.2.2,0,0,0,0-.377l-1.852-1.069a.72.72,0,0,0-.652,0l-1.557.9A.2.2,0,0,0,1948.09,671.419Zm3.547,8.31,1.854,1.069a.715.715,0,0,0,.65,0l1.559-.9a.2.2,0,0,0,0-.375l-1.854-1.07a.727.727,0,0,0-.65,0l-1.559.9A.2.2,0,0,0,1951.638,679.729ZM1948.649,678l1.852,1.07a.727.727,0,0,0,.65,0l1.559-.9a.2.2,0,0,0,0-.377l-1.854-1.069a.715.715,0,0,0-.65,0l-1.557.9C1948.468,677.73,1948.468,677.9,1948.649,678Zm-2.991-1.726,1.852,1.069a.72.72,0,0,0,.652,0l1.557-.9a.2.2,0,0,0,0-.377L1947.868,675a.72.72,0,0,0-.652,0l-1.557.9A.2.2,0,0,0,1945.658,676.275Zm-2.99-1.726,1.852,1.069a.719.719,0,0,0,.652,0l1.557-.9a.2.2,0,0,0,0-.377l-1.852-1.069a.719.719,0,0,0-.652,0l-1.557.9A.2.2,0,0,0,1942.668,674.549Zm-18.888-10.906,2.816,1.627a.718.718,0,0,0,.652,0l1.557-.9a.2.2,0,0,0,0-.377l-2.816-1.625a.72.72,0,0,0-.652,0l-1.557.9A.2.2,0,0,0,1923.78,663.643Zm21.32,6.049,1.852,1.069a.719.719,0,0,0,.652,0l1.557-.9a.2.2,0,0,0,0-.375l-1.852-1.07a.719.719,0,0,0-.652,0l-1.557.9A.2.2,0,0,0,1945.1,669.693Zm-2.991-1.728,1.852,1.07a.719.719,0,0,0,.652,0l1.557-.9a.2.2,0,0,0,0-.375l-1.852-1.07a.719.719,0,0,0-.652,0l-1.557.9A.2.2,0,0,0,1942.109,667.965Zm-2.99-1.726,1.852,1.07a.731.731,0,0,0,.652,0l1.559-.9a.2.2,0,0,0,0-.377l-1.854-1.069a.715.715,0,0,0-.65,0l-1.559.9A.2.2,0,0,0,1939.119,666.239Zm-2.989-1.726,1.852,1.069a.72.72,0,0,0,.652,0l1.557-.9a.2.2,0,0,0,0-.375l-1.854-1.069a.715.715,0,0,0-.65,0l-1.557.9A.2.2,0,0,0,1936.13,664.513Zm-2.99-1.726,1.852,1.069a.719.719,0,0,0,.652,0l1.557-.9a.2.2,0,0,0,0-.375l-1.852-1.069a.718.718,0,0,0-.652,0l-1.557.9A.2.2,0,0,0,1933.14,662.787Zm-3.955-2.285,2.816,1.627a.72.72,0,0,0,.652,0l1.557-.9a.2.2,0,0,0,0-.375l-2.816-1.627a.73.73,0,0,0-.652,0l-1.557.9A.2.2,0,0,0,1929.185,660.5Zm24.127,17.1,2.816,1.625a.718.718,0,0,0,.652,0l1.557-.9a.2.2,0,0,0,0-.377l-2.816-1.625a.72.72,0,0,0-.652,0l-1.557.9A.2.2,0,0,0,1953.312,677.6Zm-2.99-1.726,1.852,1.069a.718.718,0,0,0,.652,0l1.559-.9a.2.2,0,0,0,0-.375l-1.854-1.069a.716.716,0,0,0-.65,0l-1.559.9A.2.2,0,0,0,1950.321,675.876Zm-2.989-1.726,1.852,1.069a.719.719,0,0,0,.652,0l1.557-.9a.2.2,0,0,0,0-.375l-1.854-1.07a.726.726,0,0,0-.65,0l-1.557.9A.2.2,0,0,0,1947.333,674.15Zm-2.99-1.728,1.852,1.07a.729.729,0,0,0,.652,0l1.557-.9a.2.2,0,0,0,0-.377l-1.852-1.069a.72.72,0,0,0-.652,0l-1.557.9C1944.161,672.151,1944.161,672.32,1944.342,672.423Zm-2.991-1.726,1.852,1.069a.719.719,0,0,0,.652,0l1.557-.9a.2.2,0,0,0,0-.377l-1.852-1.069a.718.718,0,0,0-.652,0l-1.557.9A.2.2,0,0,0,1941.351,670.7Zm-13.684-4.778,13.85,8a.716.716,0,0,0,.65,0l1.559-.9a.2.2,0,0,0,0-.375l-13.85-8a.719.719,0,0,0-.652,0l-1.557.9A.2.2,0,0,0,1927.667,665.919Zm10.694,3.052,1.852,1.069a.72.72,0,0,0,.652,0l1.557-.9a.2.2,0,0,0,0-.377l-1.852-1.069a.718.718,0,0,0-.652,0l-1.557.9A.2.2,0,0,0,1938.361,668.971Zm-2.99-1.726,1.852,1.069a.719.719,0,0,0,.652,0l1.557-.9c.182-.1.182-.271,0-.375l-1.852-1.07a.731.731,0,0,0-.652,0l-1.557.9A.2.2,0,0,0,1935.371,667.244Zm-2.991-1.728,1.852,1.07a.72.72,0,0,0,.652,0l1.557-.9a.2.2,0,0,0,0-.375l-1.852-1.07a.719.719,0,0,0-.652,0l-1.557.9A.2.2,0,0,0,1932.38,665.517Zm-2.99-1.726,1.852,1.071a.73.73,0,0,0,.652,0l1.559-.9a.2.2,0,0,0,0-.377l-1.854-1.069a.715.715,0,0,0-.65,0l-1.559.9A.2.2,0,0,0,1929.39,663.791Zm-2.989-1.726,1.852,1.069a.718.718,0,0,0,.652,0l1.557-.9a.2.2,0,0,0,0-.377l-1.853-1.069a.716.716,0,0,0-.651,0l-1.557.9A.2.2,0,0,0,1926.4,662.065Zm3.565-7.368,1.852,1.07a.719.719,0,0,0,.652,0l1.557-.9a.2.2,0,0,0,0-.375l-1.852-1.07a.72.72,0,0,0-.652,0l-1.557.9A.2.2,0,0,0,1929.966,654.7Zm-2.991-1.726,1.852,1.069a.719.719,0,0,0,.652,0l1.557-.9a.2.2,0,0,0,0-.377l-1.852-1.069a.72.72,0,0,0-.652,0l-1.557.9A.2.2,0,0,0,1926.975,652.971Zm-2.99-1.726,1.852,1.069a.72.72,0,0,0,.652,0l1.557-.9a.2.2,0,0,0,0-.377l-1.852-1.069a.72.72,0,0,0-.652,0l-1.557.9A.2.2,0,0,0,1923.985,651.245Zm-2.726,1.573,1.852,1.071a.72.72,0,0,0,.652,0l1.557-.9a.2.2,0,0,0,0-.376l-1.852-1.07a.719.719,0,0,0-.652,0l-1.557.9A.2.2,0,0,0,1921.259,652.818Zm-2.649,1.545,7.784,4.5a.894.894,0,0,0,.81,0l4.092-2.362a.247.247,0,0,0,0-.467l-4.693-2.71a.9.9,0,0,0-.81,0l-2.051,1.184a.5.5,0,0,1-.454,0l-2.615-1.489a.6.6,0,0,0-.539,0l-1.523.878A.247.247,0,0,0,1918.61,654.363Z" transform="translate(-1897.987 -607.993)"/><path class="at" d="M1914.946,664.125l12.957,7.481c.007,0,8.409-4.851,8.409-4.851s-12.957-7.493-12.957-7.493-8.409,4.851-8.409,4.851Z" transform="translate(-1896.384 -600.534)"/><path class="au" d="M1923.355,659.261c-.007,0-8.409,4.851-8.409,4.851a2.631,2.631,0,0,0,.246.154l8.156-4.708c.007,0,12.718,7.339,12.718,7.339l.246-.144C1936.312,666.742,1923.355,659.261,1923.355,659.261Z" transform="translate(-1896.384 -600.534)"/></g><g transform="translate(0 114.724)"><g transform="translate(0 108.511)"><g transform="translate(0 1.398)"><path class="w" d="M1895.811,690.208a5.138,5.138,0,0,0-2.29-3.233l-2.441-1.419a5.147,5.147,0,0,1,2.29,3.233l11.456,41.5,2.441,1.417Z" transform="translate(-1834.389 -682.428)"/><path class="w" d="M1870.831,702.348l-11.314,55.236,2.44,1.419,12.092-56.013Z" transform="translate(-1859.516 -669.06)"/><path class="w" d="M1912.594,684.552c-2.01-1.167-4.786-.972-7.775.754l-28.491,16.449c-4.907,2.833-9.244,9.155-10.512,15.348l3.2,1.855c1.268-6.195,4.848-12.952,9.756-15.786l28.491-16.448c2.988-1.726,5.763-1.92,7.773-.753Z" transform="translate(-1854.502 -683.815)"/><path class="w" d="M1921.755,689.274c-1.3-4.713-5.641-6.021-10.563-3.179L1882.7,702.543c-4.909,2.834-9.244,9.155-10.513,15.349l-11.313,55.235,2.033-1.175,11.184-54.567c1.049-5.083,4.591-10.266,8.616-12.589l28.489-16.45c4.039-2.331,7.6-1.248,8.659,2.619l11.456,41.5,2.033-1.175Z" transform="translate(-1858.434 -683.186)"/></g><g transform="translate(19.118)"><g class="x"><path class="y" d="M1870.345,708.812a2.233,2.233,0,0,1,.35-.555,1.443,1.443,0,0,1,.35-.3l41.377-23.89c2.1-1.211,4.066-1.358,5.636-.445l53.362,30.982-.146,3.188c.059.041-5.07-2.935-5.07-2.935-.14.072-.277.109-.421.192l-41.375,23.888a1.418,1.418,0,0,0-.352.3,2.217,2.217,0,0,0-.35.557,2.068,2.068,0,0,0-.185.819.8.8,0,0,0,.307.72l-53.362-30.981a.8.8,0,0,1-.307-.722A2.082,2.082,0,0,1,1870.345,708.812Z" transform="translate(-1870.16 -683.036)"/><path class="av" d="M1900.757,725.209l41.375-23.888c2.272-1.313,4.39-1.374,6.017-.2l.733.555c.338.26.34,1.009.005,1.658a1.621,1.621,0,0,1-.652.717.509.509,0,0,1-.612.013l-.735-.532c-1.268-.95-2.971-.9-4.749.128l-41.4,23.9c-.474.275-.871-.02-.873-.677A2.1,2.1,0,0,1,1900.757,725.209Z" transform="translate(-1846.508 -669.304)"/></g></g><g transform="translate(55.626 33.513)"><path class="w" d="M1926.78,708.089a5.146,5.146,0,0,0-2.288-3.235l-2.441-1.417a5.146,5.146,0,0,1,2.29,3.233l11.455,41.5,2.441,1.419Z" transform="translate(-1865.359 -700.308)"/><path class="w" d="M1901.8,720.229l-11.315,55.236,2.441,1.418,12.092-56.013Z" transform="translate(-1890.487 -686.941)"/><path class="w" d="M1943.563,702.433c-2.01-1.167-4.784-.973-7.775.753L1907.3,719.634c-4.909,2.834-9.246,9.156-10.512,15.349l3.2,1.854c1.266-6.193,4.848-12.95,9.754-15.784l28.492-16.449c2.989-1.726,5.765-1.922,7.775-.753Z" transform="translate(-1885.472 -701.695)"/><path class="w" d="M1952.726,707.155c-1.3-4.713-5.641-6.021-10.564-3.179l-28.49,16.449c-4.909,2.834-9.246,9.155-10.512,15.349l-11.314,55.235,2.033-1.175,11.182-54.567c1.049-5.083,4.593-10.266,8.615-12.591l28.492-16.449c4.038-2.331,7.6-1.248,8.657,2.619l11.458,41.5,2.033-1.175Z" transform="translate(-1889.405 -701.067)"/></g></g><g class="x" transform="translate(40.577 33.03)"><path class="aw" d="M1893.775,648.272c2.252,1.548-.46,15.2,9.753,18.708,1.033.354,2.829-.5,3.767-.774,1.749-.506,18.358-6.565,18.578-6.69.729-.422,2.9-2.85,4.744-4.032a12.241,12.241,0,0,1,4.057-1.509,3.479,3.479,0,0,1,1.546.075,23.333,23.333,0,0,1,7.416,5.284c.313.379.435.548.269.919-.067.151-.379.257-.636.307.424.629-.422.93-.857.867-.411-.061-1.627-.443-1.627-.443a1.546,1.546,0,0,0-.873-.054c-2.308.537-5.2,1.06-5.717,1.69-.449.548,1.227,1.469,1.227,1.469s2.335-.217,2.552-.2c.738.047,1.757.424,1.638,1.175-.07.442-.528.654-.928.8-.709.259-3.172.708-3.172.708-.83-.215-6.13-1.1-6.13-1.1s-24.093,14.591-38.815,14.333c-1.229-.022-6.653-7.289-7.648-15.369C1882.2,658.616,1886.5,643.274,1893.775,648.272Z" transform="translate(-1881.524 -636.016)"/><path class="ax" d="M1883.734,670.952a3.232,3.232,0,0,1-1.62-2.865c-.034-5.158.063-14.191.927-18.259,2.123-9.986,13.693-13.594,15.931.544.7,4.426,1.473,18.737,1.473,18.737C1898.133,673.088,1888.434,673.477,1883.734,670.952Z" transform="translate(-1882.108 -641.006)"/><g transform="translate(2.74)"><path class="ay" d="M1883.911,705.6c1.083,11.879,31.008,24.1,41.479,19.234,8.833-4.108,34.859-14.257,40.493-17.979l4.208,2.559c-3.213-17.212-13.788-19.157-21.657-17.8.329-2.285-5.739-15.482-17.932-11.833-4.025,1.205-46.869,9.78-46.869,9.78C1883.633,691.294,1883.911,705.6,1883.911,705.6Z" transform="translate(-1883.633 -610.646)"/><path class="r" d="M1888.753,641.077c6.221-1.279,38.292,16.353,38.971,20.294a102.524,102.524,0,0,0-1.367,27.232c.644,8.217-.414,34.846.424,40.665a2.791,2.791,0,0,1-.787,2.47c-9.992,9.334-42.567,5.067-41.811-6.055,0,0,1.4-17.607,1.665-31.775C1886.32,669.084,1882.561,646.5,1888.753,641.077Z" transform="translate(-1883.205 -641.011)"/></g><path class="aw" d="M1916.4,668.994c.244,1.925.512,3.941.851,6.141-.008-.052,1.781-.6,1.888-.634,16.75-5.634,17.51-5.379,18.482-7.134.752-1.356,2.239-4,2.681-4.5a21.042,21.042,0,0,1,3.355-2.056,1.285,1.285,0,0,1,1.284.154.77.77,0,0,1,.136.762,3.069,3.069,0,0,1,1.159-.039c4.3,1.076,6.227,4.727,6.636,5.1.382.347.536.507.42.92-.047.167-.358.325-.6.433.519.577-.318,1.02-.783,1.018-.438,0-1.765-.217-1.765-.217a1.639,1.639,0,0,0-.922.077c-2.331.909-3.36,1.2-3.806,1.933-8.531,6.764-32.863,18.827-36.857,15.357-2.725-2.364-5.235-8.472-6.809-15.08C1906.409,669.315,1911.295,668.169,1916.4,668.994Z" transform="translate(-1866.469 -625.326)"/><path class="ax" d="M1908.332,682.645a15.507,15.507,0,0,1-7.36-1.884c-.282-4.785-.791-16.044-.029-20.851,1.528-9.652,10.782-14.175,15.121-3.8a26.917,26.917,0,0,1,1.458,6.437c.873,6.08,1.9,16.565,1.9,16.565C1916.515,681.837,1912.384,682.762,1908.332,682.645Z" transform="translate(-1867.432 -633.707)"/></g><g transform="translate(5.959 93.542)"><g class="x"><path class="az" d="M1865.252,675.108a1.762,1.762,0,0,1,.57-.325,3.327,3.327,0,0,1,2.545.585l39.656,22.9a14.144,14.144,0,0,1,5.859,7.614l7.763,30.7c.318,1.259.165,2.162-.349,2.613l-2.114,1.857c.514-.451.666-1.354.349-2.612l-7.763-30.7a14.147,14.147,0,0,0-5.857-7.614l-39.658-22.895a3.322,3.322,0,0,0-2.545-.587,1.753,1.753,0,0,0-.569.325Z" transform="translate(-1862.592 -674.702)"/><path class="ba" d="M1863.95,675.817a3.322,3.322,0,0,1,2.545.587l39.658,22.895a14.148,14.148,0,0,1,5.857,7.614l7.763,30.7c.4,1.588.054,2.611-.827,2.872-.411.106-1.176.286-2.811-.643-5.869-3.387-34.3-19.8-39.657-22.895a13.569,13.569,0,0,1-5.73-7.378c-.552-2.18-7.163-28.387-7.743-30.682C1862.745,677.719,1862.6,676.3,1863.95,675.817Z" transform="translate(-1862.834 -673.879)"/></g><path class="w" d="M1887.519,697.808l7.973,26.582,2.755-1.591,2.225,1.284a4.354,4.354,0,0,0,2.172.715l1.307.758-6.135,3.542a1.638,1.638,0,0,1-2.066-.086,1.5,1.5,0,0,0,.25.233l-3.927-2.283a1.8,1.8,0,0,1-.779-1.1l-8.786-29.228,1.084-1.1Z" transform="translate(-1847.172 -658.124)"/><path class="w" d="M1868,686.524l3.924,2.283,7.973,26.582,2.757-1.591,5.239,3.025-5.67,3.274a1.643,1.643,0,0,1-2.068-.086,1.553,1.553,0,0,0,.252.233l-3.926-2.283a1.8,1.8,0,0,1-.78-1.1l-8.788-29.228Z" transform="translate(-1859.586 -665.291)"/></g><g transform="translate(51.773)"><path class="bb" d="M1891.842,649.57c.072-.907.007-1.845.016-2.757a28.588,28.588,0,0,1,.108-3.736c.251-1.724,2.408-1.349,3.759-1.994a39.647,39.647,0,0,1,7.109-2.08,5.719,5.719,0,0,0,1.191-.408,10.991,10.991,0,0,1,1.485-.9c.427-.138.882-.149,1.32-.3a24.6,24.6,0,0,0,3.123-1.46c-.812,4.219-1.3,19.256-1.3,19.256,7.253,5.8-17.939,3.258-18.073-3.154C1890.556,650.826,1891.81,649.985,1891.842,649.57Z" transform="translate(-1886.559 -612.02)"/><path class="aw" d="M1913.2,647.992c-.074.616-1.378,9.121-1.681,9.7a4.012,4.012,0,0,1-1.34,1.338c-4.516,3.122-16.047-.192-18.193-3.668-2.851-4.614,1.485-14.66,3.753-19.586a16.783,16.783,0,0,1,2.316-4.009c2.209-2.579,5.727-3.567,9.067-4.194,1.986-.372,4.3-.577,5.781.8,1.087,1.008,2.522.438,2.619,1.916C1915.675,632.565,1913.554,645.093,1913.2,647.992Z" transform="translate(-1886.186 -618.901)"/><path class="w" d="M1904.042,622.666c4.32-.366,11.9,1.53,13.553,5.3,1.313,3,1,5.746.092,8.889-.76,2.624-2.484,4.964-3.481,8.395-.12.41-.822,6.9-.822,6.9-.1.521-.939.427-1.015.1a29.776,29.776,0,0,0-.391-4.111c-.456-1.349-2.5-1.072-3.411-.163-1.166,1.164-.851,4.533-.968,6.646-.12,2.143-1.2,5.861-3.644,6.726-3.393,1.2-10.329-1.865-11.56-4.18-2.743-5.158-5.378-10.628-3.316-24.371C1890.054,626.3,1895.268,623.411,1904.042,622.666Z" transform="translate(-1888.342 -622.621)"/></g></g><g class="x" transform="translate(171.614 91.404)"><path class="bc" d="M1989.654,616.59l45.459,26.418-30.166,17.821-44.474-27.39Z" transform="translate(-1950.76 -604.102)"/><g transform="translate(42.69 22.857)"><path class="at" d="M1978.833,626.886l12.045,6.953,7.817-4.508c0-.013-12.043-6.967-12.043-6.967l-7.818,4.51Z" transform="translate(-1978.833 -622.363)"/><path class="au" d="M1986.644,622.363c.007,0,12.05,6.954,12.05,6.954a2.4,2.4,0,0,1-.235.147l-11.807-6.816-7.581,4.373-.237-.136C1978.833,626.873,1986.644,622.363,1986.644,622.363Z" transform="translate(-1978.833 -622.363)"/></g><g transform="translate(11.54 19.371)"><path class="bd" d="M2002.608,652.685a.407.407,0,0,1-.221-.361.413.413,0,0,1,.224-.349l1.825-1.036,2.15,1.211a.4.4,0,0,1,.221.361.415.415,0,0,1-.223.348l-1.827,1.036Zm2.989-1.7a.407.407,0,0,1-.221-.361.415.415,0,0,1,.226-.348l1.823-1.035,2.15,1.209a.4.4,0,0,1,0,.711l-1.827,1.035Zm-6.173-.149a.41.41,0,0,1-.221-.361.419.419,0,0,1,.224-.348l1.827-1.035,2.15,1.209a.408.408,0,0,1,.22.363.421.421,0,0,1-.224.348l-1.825,1.035Zm11.238-.419-8.343-4.833a.466.466,0,0,1-.251-.411.484.484,0,0,1,.262-.4l4.526-2.567h.359l5.054,2.926a.464.464,0,0,1,.251.409.484.484,0,0,1-.262.4l-2.241,1.27,2.735,1.59a.359.359,0,0,1-.007.638l-1.722.977Zm-8.249-1.275a.406.406,0,0,1-.219-.361.414.414,0,0,1,.224-.35l1.825-1.035,2.148,1.211a.393.393,0,0,1-.005.709l-1.823,1.036Zm-6.171-.151a.4.4,0,0,1-.221-.359.418.418,0,0,1,.226-.35l1.823-1.034,2.152,1.211a.394.394,0,0,1-.005.709l-1.825,1.035Zm15.319-1.39a.395.395,0,0,1,.005-.71l1.823-1.036,2.152,1.21a.395.395,0,0,1-.005.711l-1.823,1.035Zm-12.33-.3a.408.408,0,0,1-.221-.361.418.418,0,0,1,.226-.35l1.823-1.035,2.148,1.211a.407.407,0,0,1,.221.361.418.418,0,0,1-.226.35l-1.823,1.034Zm-8.885-1.82a.4.4,0,0,1-.219-.359.409.409,0,0,1,.224-.35l1.825-1.035,3.177,1.805a.407.407,0,0,1,.219.361.416.416,0,0,1-.225.349l-1.825,1.034Zm24.195.433a.417.417,0,0,1-.219-.359.423.423,0,0,1,.224-.352l1.826-1.034,2.148,1.211a.41.41,0,0,1,.221.359.416.416,0,0,1-.226.352l-1.823,1.033Zm-20.179-1.462a.408.408,0,0,1-.221-.361.42.42,0,0,1,.223-.35l1.826-1.035,2.148,1.211a.4.4,0,0,1,.221.361.416.416,0,0,1-.224.348l-1.825,1.036Zm17-.383a.406.406,0,0,1-.219-.361.418.418,0,0,1,.223-.349l1.826-1.035,2.15,1.209a.407.407,0,0,1,.219.359.415.415,0,0,1-.226.352l-1.823,1.034Zm-36.958-7.79a.4.4,0,0,1-.217-.359.412.412,0,0,1,.225-.35l1.826-1.035,14.922,8.61a.4.4,0,0,1,.219.359.418.418,0,0,1-.227.35l-1.825,1.035Zm21.889,5.85a.4.4,0,0,1-.219-.359.417.417,0,0,1,.223-.35l1.828-1.035,3.177,1.805a.409.409,0,0,1,.219.361.423.423,0,0,1-.224.35l-1.826,1.035Zm-5.112.478a.408.408,0,0,1-.221-.361.413.413,0,0,1,.226-.348l1.823-1.035,2.15,1.211a.393.393,0,0,1-.006.709l-1.823,1.035Zm17-.381a.412.412,0,0,1-.221-.363.427.427,0,0,1,.224-.349l1.825-1.034,2.15,1.211a.409.409,0,0,1,.221.359.416.416,0,0,1-.227.35l-1.823,1.035Zm-7.878-1.144a.4.4,0,0,1-.221-.361.417.417,0,0,1,.225-.348l1.827-1.035,2.15,1.209a.407.407,0,0,1,.219.361.414.414,0,0,1-.223.35l-1.827,1.035Zm-12.305-.32a.4.4,0,0,1-.219-.361.42.42,0,0,1,.223-.348l1.827-1.035,2.148,1.211a.408.408,0,0,1,.221.361.418.418,0,0,1-.223.349l-1.827,1.036Zm5.114-.476a.407.407,0,0,1-.221-.361.416.416,0,0,1,.224-.348l1.827-1.036,2.15,1.211a.407.407,0,0,1,.219.361.417.417,0,0,1-.223.35l-1.827,1.035Zm9.12-1.525a.409.409,0,0,1-.219-.361.419.419,0,0,1,.226-.35l1.825-1.035,3.176,1.807a.4.4,0,0,1,.219.359.41.41,0,0,1-.224.35l-1.825,1.034Zm-5.114.478a.417.417,0,0,1-.221-.363.423.423,0,0,1,.225-.348l1.829-1.035,2.148,1.211a.405.405,0,0,1,.221.361.416.416,0,0,1-.224.349l-1.825,1.035Zm-12.3-.32a.407.407,0,0,1-.221-.361.417.417,0,0,1,.225-.348l1.825-1.036,2.15,1.211a.407.407,0,0,1,.219.361.418.418,0,0,1-.223.35l-1.825,1.035Zm5.111-.478a.406.406,0,0,1-.219-.359.413.413,0,0,1,.223-.35l1.828-1.035,2.148,1.211a.405.405,0,0,1,.221.361.413.413,0,0,1-.226.349l-1.823,1.034Zm4.009-1.047a.407.407,0,0,1-.221-.361.425.425,0,0,1,.224-.35l1.826-1.035,2.15,1.211a.408.408,0,0,1,.219.361.417.417,0,0,1-.224.35l-1.823,1.034Zm-12.3-.32a.4.4,0,0,1-.221-.361.409.409,0,0,1,.226-.349l1.823-1.035,2.15,1.211a.4.4,0,0,1,.219.361.413.413,0,0,1-.226.349l-1.823,1.034Zm17.417-.158a.411.411,0,0,1-.221-.361.421.421,0,0,1,.224-.349l1.828-1.034,2.148,1.211a.407.407,0,0,1,.221.359.422.422,0,0,1-.225.35l-1.825,1.035Zm-12.305-.32a.4.4,0,0,1-.221-.359.416.416,0,0,1,.227-.35l1.825-1.034,2.149,1.21a.41.41,0,0,1,.221.361.424.424,0,0,1-.224.35l-1.826,1.035Zm4.007-1.047a.395.395,0,0,1,.009-.711l1.823-1.033,2.148,1.211a.4.4,0,0,1,.221.361.415.415,0,0,1-.224.348l-1.825,1.035Zm-12.3-.318a.411.411,0,0,1-.22-.361.415.415,0,0,1,.226-.35l1.823-1.034,2.15,1.21a.408.408,0,0,1,.221.361.414.414,0,0,1-.226.348l-1.823,1.036Zm17.418-.158a.408.408,0,0,1-.221-.363.418.418,0,0,1,.224-.348l1.826-1.035,2.148,1.211a.4.4,0,0,1,.221.361.413.413,0,0,1-.222.348l-1.827,1.036Zm-12.3-.32a.4.4,0,0,1-.221-.361.415.415,0,0,1,.223-.348l1.828-1.035,2.148,1.209a.409.409,0,0,1,.221.363.42.42,0,0,1-.224.348l-1.825,1.035Zm-12.294-.325a.412.412,0,0,1-.221-.361.421.421,0,0,1,.225-.35l1.825-1.035,2.151,1.211a.4.4,0,0,1,.221.361.42.42,0,0,1-.224.348l-1.825,1.035Zm16.3-.722a.407.407,0,0,1-.22-.361.417.417,0,0,1,.226-.35l1.825-1.035,2.15,1.211a.405.405,0,0,1,.219.361.411.411,0,0,1-.223.348l-1.827,1.036Zm-12.3-.32a.408.408,0,0,1-.221-.361.414.414,0,0,1,.224-.348l1.825-1.036,2.148,1.211a.409.409,0,0,1,.221.361.424.424,0,0,1-.225.35l-1.824,1.034Zm17.417-.158a.412.412,0,0,1-.221-.361.417.417,0,0,1,.224-.349l1.829-1.036,2.148,1.212a.4.4,0,0,1,.221.359.422.422,0,0,1-.224.35l-1.825,1.035Zm-12.3-.32a.4.4,0,0,1-.221-.361.418.418,0,0,1,.224-.348l1.826-1.034,2.15,1.21a.4.4,0,0,1,.219.361.414.414,0,0,1-.223.348l-1.827,1.034Zm-12.292-.325a.408.408,0,0,1-.221-.361.418.418,0,0,1,.226-.35l1.823-1.033,2.152,1.209a.407.407,0,0,1,.219.361.413.413,0,0,1-.225.35l-1.825,1.034Zm16.3-.722a.394.394,0,0,1,0-.709l1.827-1.036,2.148,1.211a.408.408,0,0,1,.221.361.421.421,0,0,1-.224.35l-1.825,1.035Zm-12.3-.318a.395.395,0,0,1,.005-.711l1.823-1.034,2.15,1.209a.41.41,0,0,1,.221.361.415.415,0,0,1-.226.35l-1.823,1.035Zm17.418-.16a.407.407,0,0,1-.221-.361.413.413,0,0,1,.226-.348l1.825-1.035,2.15,1.211a.406.406,0,0,1,.219.361.412.412,0,0,1-.224.348l-1.825,1.035Zm-12.307-.318a.409.409,0,0,1-.219-.361.42.42,0,0,1,.224-.35l1.827-1.034,2.15,1.211a.409.409,0,0,1,.219.361.418.418,0,0,1-.227.35l-1.823,1.034Zm-12.292-.327a.4.4,0,0,1-.219-.361.411.411,0,0,1,.224-.348l1.825-1.034,2.15,1.209a.407.407,0,0,1,.221.361.417.417,0,0,1-.225.35l-1.825,1.034Zm16.3-.722a.405.405,0,0,1-.221-.361.414.414,0,0,1,.226-.348l1.825-1.035,2.15,1.209a.406.406,0,0,1,.219.363.413.413,0,0,1-.224.349l-1.825,1.035Zm-12.3-.318a.407.407,0,0,1-.221-.361.418.418,0,0,1,.226-.35l1.823-1.035,2.148,1.211a.405.405,0,0,1,.221.361.413.413,0,0,1-.226.348l-1.823,1.035Zm17.417-.158a.4.4,0,0,1-.219-.361.416.416,0,0,1,.223-.35l1.828-1.035,2.148,1.211a.407.407,0,0,1,.221.361.423.423,0,0,1-.223.35l-1.827,1.035Zm-12.305-.32a.4.4,0,0,1-.221-.361.416.416,0,0,1,.226-.349l1.825-1.034,2.15,1.209a.408.408,0,0,1,.221.361.422.422,0,0,1-.224.35l-1.825,1.035Zm-12.292-.325a.411.411,0,0,1-.221-.363.418.418,0,0,1,.226-.349l1.823-1.034,2.15,1.211a.406.406,0,0,1,.221.361.418.418,0,0,1-.223.348l-1.826,1.036Zm16.3-.724a.4.4,0,0,1-.219-.361.414.414,0,0,1,.224-.347l1.826-1.036,2.148,1.211a.405.405,0,0,1,.221.361.412.412,0,0,1-.228.35l-1.821,1.035Zm-13.333-.914a.4.4,0,0,1-.219-.359.417.417,0,0,1,.227-.348l1.823-1.035,3.179,1.805a.4.4,0,0,1,.219.359.418.418,0,0,1-.226.35l-1.825,1.035Zm18.448.438a.408.408,0,0,1-.221-.361.415.415,0,0,1,.226-.349l1.825-1.036,2.15,1.211a.407.407,0,0,1,.219.363.417.417,0,0,1-.223.348l-1.826,1.035Zm-12.3-.318a.408.408,0,0,1-.221-.363.417.417,0,0,1,.226-.348l1.825-1.034,2.148,1.211a.407.407,0,0,1,.22.361.415.415,0,0,1-.224.348l-1.825,1.035Zm4.007-1.049a.408.408,0,0,1-.221-.361.415.415,0,0,1,.226-.349l1.825-1.035,2.15,1.209a.411.411,0,0,1,.221.361.418.418,0,0,1-.226.35l-1.823,1.035Zm5.114-.478a.4.4,0,0,1-.219-.359.408.408,0,0,1,.224-.35l1.826-1.035,2.148,1.211a.407.407,0,0,1,.221.361.417.417,0,0,1-.224.348l-1.825,1.034Zm-12.3-.318a.415.415,0,0,1-.219-.363.424.424,0,0,1,.224-.348l1.825-1.035,2.15,1.211a.393.393,0,0,1-.006.71l-1.825,1.036Zm2.982-1.644a.4.4,0,0,1-.219-.359.409.409,0,0,1,.224-.35l1.825-1.035,3.177,1.805a.4.4,0,0,1,.219.359.416.416,0,0,1-.226.35L1973.8,625.7Zm6.141.119a.407.407,0,0,1-.221-.361.418.418,0,0,1,.226-.35l1.825-1.035,2.15,1.211a.405.405,0,0,1,.219.361.413.413,0,0,1-.224.35l-1.825,1.035Zm-3.184-1.845a.393.393,0,0,1,.005-.709l1.827-1.036,2.148,1.211a.408.408,0,0,1,.221.361.416.416,0,0,1-.226.35l-1.823,1.034Z" transform="translate(-1961.49 -620.422)"/></g><path class="be" d="M1955.065,609.921l45.459,26.419,7.525,28.831a3.028,3.028,0,0,0-.264,1.173,1.076,1.076,0,0,0,.417.977L1962.744,640.9a1.08,1.08,0,0,1-.417-.979,2.983,2.983,0,0,1,.266-1.171Z" transform="translate(-1955.065 -609.411)"/><path class="aq" d="M2001.038,636.055l-45.459-26.418-.514.51,45.459,26.418Z" transform="translate(-1955.065 -609.637)"/><path class="aq" d="M1980.375,624.856l.514-.51,8.4,29.8,29.978-17.307-.016,1.383-30.438,17.573c-.659.357-1.176-.056-1.178-.93a3.028,3.028,0,0,1,.264-1.173Z" transform="translate(-1934.916 -597.928)"/></g><path class="ag" d="M1993.982,637.153a9.865,9.865,0,0,1-.235-3.608c.293-1.345.911-4.065,1.787-5.058.492-.557,9.633-6.653,9.633-6.653,2.6-1.45,7.7,5.151,5.814,6.789-.717.623-6.976,5.41-7.85,6.737-.144.217-1.557,4.487-2.191,5.327-.677.9-2.3.907-3.271.851a2,2,0,0,1-.846-.174c-.461-.246-.668-.812-1.1-1.1-.235-.156-.517-.221-.765-.356C1993.864,639.307,1994.1,638.163,1993.982,637.153Z" transform="translate(-1752.743 -508.688)"/></g></g></g></g><g transform="translate(354.481 1032.627)"><g transform="translate(23.619)"><path class="ad" d="M1206.9,1158.211s8.348,4.083,6.284,15.193-2.978,12.607-.669,16.947,5.033,22.858,2.955,26.368-25.721-15.424-29-31.309,2.078-22.951,3.972-25.583S1199.53,1154.47,1206.9,1158.211Z" transform="translate(-1185.431 -1156.378)"/></g><g transform="translate(39.98 236.568)"><path class="bf" d="M1231.072,1692.324a20.877,20.877,0,0,0,2.438,4.076c1.168,1.525,4.8,7.787,6.4,8.224s6.549,1.31,6.986,4.075.654,4.73-4.22,4.949-8.078.51-10.407-2.911a25.353,25.353,0,0,0-6.04-5.894v8.924h-1.892s-.873-9.288-1.383-9.943-1.819-7.786,2.692-11.5S1231.072,1692.324,1231.072,1692.324Z" transform="translate(-1222.383 -1690.675)"/></g><g transform="translate(42.222 237.236)"><path class="bg" d="M1242.735,1705.465s-4.366,1.091-6.04,0-7.364-10.71-9.249-11.286c0,0,1.826-3.706,6.448-1.013C1233.894,1693.166,1241.5,1703.863,1242.735,1705.465Z" transform="translate(-1227.446 -1692.185)"/></g><g transform="translate(99.887 80.871)"><g transform="translate(0)"><path class="bg" d="M1357.927,1344.053s3.029.581,4.065-.843a9.879,9.879,0,0,1,3.511-2.427c.828-.384,2.929-2.51,3.424-1.47s-3.3,3.671-3.98,4.381,3.717,1.025,4.476,1.716-.174,7.952-3.17,7.387-5.823-3.147-6.37-3.142a18.724,18.724,0,0,1-2.2-.325Z" transform="translate(-1357.686 -1339.029)"/></g></g><g transform="translate(108.596 86.955)"><g transform="translate(0 0)"><path class="bg" d="M1379.715,1352.769s9.057,2.339,9.53,3,.317,1.144-.539.961-8.816-2.007-8.816-2.007,10.254,4.571,10.76,5.027c.3.268.05,1.221-.417,1.165s-10.889-4-10.889-4,9.566,4.285,9.875,4.793a.721.721,0,0,1-.906.994c-.731-.269-9.835-3.744-9.835-3.744s6.766,3.556,6.775,4.141c0,.357-.17,1.191-1.887.219s-6.01-2.841-6.01-2.841Z" transform="translate(-1377.356 -1352.769)"/></g></g><g transform="translate(16.888 243.827)"><path class="bf" d="M1177.6,1707.246s4.876,7.241,6.841,8.988c0,0,4.366,1.6,4.8,4.657s.364,5.1-4.8,5.242-8.554-.783-9.5-3.912a14.255,14.255,0,0,0-3.017-5.26v6.549h-1.165s-.291-6.331-.364-7.5-.836-5.641,1.62-7.623A6.814,6.814,0,0,1,1177.6,1707.246Z" transform="translate(-1170.23 -1707.071)"/></g><g transform="translate(10.392 101.66)"><path class="bh" d="M1166.152,1388.565s-6.157,8-7.827,17.5.986,41.371.913,46.065-4.439,16.373-3.566,25.215,4.32,52.848,4.32,52.848l9.434-1.872s-.546-44.864,0-48.575,1.641-17.24,1.86-18.768,13.859-41.656,13.859-48.5S1181,1377.395,1166.152,1388.565Z" transform="translate(-1155.557 -1385.98)"/></g><g transform="translate(30.745 105.369)"><path class="bh" d="M1222.7,1396.362s10.115,38.605,11.317,43.954,2.939,9.76,2.939,12.031c0,5.269-1.958,13.73-1.958,13.73l-12.844,61.433h-12.234s6.816-36.856,7-44.063c.184-7.222,5.743-17.479,4.652-20.536s-17.575-38.315-17.575-38.315S1191.513,1385.156,1222.7,1396.362Z" transform="translate(-1201.526 -1394.358)"/></g><g transform="translate(18.677 244.002)"><path class="bg" d="M1186.694,1716.455s-4.993,2.791-8.208-.793a25.333,25.333,0,0,1-4.217-7.049l5.584-1.146Z" transform="translate(-1174.269 -1707.467)"/></g><g transform="translate(44.064 41.769)"><g transform="translate(0 0)"><path class="bi" d="M1235.28,1250.714a12.62,12.62,0,0,1,7.322,3.769,48.359,48.359,0,0,1,6.934,10.561c.825,1.8,12.394,18.489,12.994,18.864s6.416,2.318,10.269,3.615c5.946,2,17.865,6.333,17.865,6.333l-2.367,7.495s-22.414-7.334-28.026-8.717c-6.864-1.691-22.665-21.962-22.665-21.962S1225.827,1256.866,1235.28,1250.714Z" transform="translate(-1231.607 -1250.714)"/></g></g><g transform="translate(11.505 38.56)"><g transform="translate(0 0)"><path class="af" d="M1187.026,1243.749a56.567,56.567,0,0,0,7.278,2.926c1.875.375,9.153,9.828,10.429,13.28s0,8.628-2.627,14.705-.15,8.1-1.349,14.18-.815,28.813-.589,32.188-35.118,8.494-42.1,2.341c0,0,4.723-20.49,10.316-26.337,1.21-1.265,1.082-9.693.256-11.794s-10.129-17.782-10.129-17.782-.683-15.9,3.377-19.057c3.526-2.739,13.137-3.715,14.863-4.315S1183.5,1243.224,1187.026,1243.749Z" transform="translate(-1158.071 -1243.467)"/></g></g><g transform="translate(30.189 25.216)"><g transform="translate(0 0)"><path class="bg" d="M1213.119,1220.722s-.161,1.487-.348,3.5c-.071.8-.15,1.673-.222,2.573a60.639,60.639,0,0,0-.283,7.067s-5.615,5.626-12-6.565a16.749,16.749,0,0,0,.663-11.872C1198.911,1208.574,1213.119,1220.722,1213.119,1220.722Z" transform="translate(-1200.269 -1213.329)"/></g></g><g transform="translate(56.088 57.543)"><path class="bj" d="M1261.426,1300.792s1.351-8.987-.085-14.452a34.9,34.9,0,0,1-2.577,11.373Z" transform="translate(-1258.764 -1286.34)"/></g><g transform="translate(25.875 39.041)"><path class="bg" d="M1190.526,1245.557s3.861,11.405,14.463,10.566,5.026-9.63,5.026-9.63a23.423,23.423,0,0,0-3.386-1.658c-.744-.143-11.721-.281-11.721-.281Z" transform="translate(-1190.526 -1244.553)"/></g><g transform="translate(45.363 40.98)"><path class="i" d="M1234.542,1248.934s5.553,15.36,5.553,31.014.448,41.156,2.386,49.209,7.457,32.957,7.457,32.957l4.324-2.237s-10.4-39.747-11.185-42.613.6-33.145,1.343-35.68,3.917-13.82,3.424-16.951c-.622-3.947-4.315-9.787-10.28-14.809Z" transform="translate(-1234.542 -1248.934)"/></g><g transform="translate(4.538 39.565)"><path class="i" d="M1165.767,1245.736a159.676,159.676,0,0,1,5.2,25.2c1.749,14.153-5.369,79.848-10.141,94.761l-18.492-2.983s3.98-46.436,9.384-54.887,7.123-15.927,1.29-33.565,2.557-26.374,2.557-26.374S1164.146,1245.919,1165.767,1245.736Z" transform="translate(-1142.335 -1245.736)"/></g><g transform="translate(0.573 71.475)"><path class="bk" d="M1180.728,1332.759l-22.421,38.835-24.925-14.391,21.447-39.4Z" transform="translate(-1133.381 -1317.807)"/></g><g transform="translate(3.167 74.483)"><path class="k" d="M1181.289,1337.882l-19.913,34.491-22.137-12.781,19.048-34.99Z" transform="translate(-1139.239 -1324.601)"/></g><g transform="translate(28.571 77.077)"><path class="i" d="M1205.915,1338.048l1.4-2.421-8.95-5.167-1.747,2.219Z" transform="translate(-1196.616 -1330.46)"/></g><g transform="translate(26.521 100.147)"><g transform="translate(0)"><path class="bg" d="M1202.267,1394.637a4.62,4.62,0,0,1-1.466-.211s-.783-.454-1.359-.743a4.425,4.425,0,0,0-.454-.2,8.505,8.505,0,0,1-2.5-1.057,56.85,56.85,0,0,1-4.5-4.752l1.658-2.522,1.216-2.582s7.372.476,8.369,1.01a2.747,2.747,0,0,1,.276.167,10.823,10.823,0,0,1,1.56,1.6c.142.121,1.471,1.422,1.424,1.976a1.817,1.817,0,0,1-.883,1.529,4.349,4.349,0,0,1-.93,2.2,2.7,2.7,0,0,1-1.3,2S1203.086,1394.435,1202.267,1394.637Z" transform="translate(-1191.986 -1382.565)"/></g></g><g transform="translate(0 41.54)"><g transform="translate(0 0)"><path class="i" d="M1153.7,1250.427s-6.809-1.95-10.71,5.552-3.882,10.7-4.4,14.367c-.492,3.46-2.715,12.9-2.94,13.88s-5.259,12.606-2.951,16.671c2.32,4.086,25.887,16.114,25.737,17.014s4.081-9.093,4.081-9.093-9.536-5.315-11.1-6.951c-2.537-2.658-7.888-5.523-6.789-8.82,1.292-3.874,5.172-16.943,6.072-18.856S1159.435,1252.865,1153.7,1250.427Z" transform="translate(-1132.087 -1250.199)"/></g></g><g transform="translate(27.888 2.711)"><g transform="translate(0)"><path class="bl" d="M1211.063,1162.854s12.122,3.81,5.542,24.728-23.136-2.424-21.4-15.17S1211.063,1162.854,1211.063,1162.854Z" transform="translate(-1195.074 -1162.5)"/></g></g><g transform="translate(26.933 1.031)"><g transform="translate(0)"><path class="ad" d="M1216.64,1172.946a27.346,27.346,0,0,1-16.1,6.65s-3.874,4.542-4.171,6.325c0,0-8.993-15.33,2.062-24.519S1220.7,1169.159,1216.64,1172.946Z" transform="translate(-1192.916 -1158.706)"/></g></g><g transform="translate(30.469 18.151)"><path class="bl" d="M1205.108,1201.558c-.078-1.522-1.016-4.987-3.279-4.017s.139,8.026,1.64,7.591C1203.469,1205.132,1205.293,1205.16,1205.108,1201.558Z" transform="translate(-1200.902 -1197.372)"/></g><g transform="translate(33.543 30.402)"><path class="bm" d="M1216.992,1230.746c-.071.8-.15,1.673-.222,2.572,0,0-5.35-.319-8.927-8.277C1208.077,1225.389,1212,1231.147,1216.992,1230.746Z" transform="translate(-1207.844 -1225.041)"/></g></g></g></svg>