<svg xmlns="http://www.w3.org/2000/svg" width="100" height="100" viewBox="0 0 100 100">
  <g id="Group_19842" data-name="Group 19842" transform="translate(-813 -912)">
    <g id="Rectangle_5481" data-name="Rectangle 5481" transform="translate(813 912)" fill="#fff" stroke="#707070" stroke-width="1" opacity="0">
      <rect width="100" height="100" stroke="none"/>
      <rect x="0.5" y="0.5" width="99" height="99" fill="none"/>
    </g>
    <g id="Group_19841" data-name="Group 19841" transform="translate(2770.397 -4644.313)">
      <path id="Path_31167" data-name="Path 31167" d="M47.55,157.9h-1.21c-3.764,0-7.528.015-11.292,0a7.32,7.32,0,0,1-7.7-7.632q-.05-12.877,0-25.754a7.314,7.314,0,0,1,14.214-2.636,10.35,10.35,0,0,1,.445,3.111c.042,5.646.02,11.292.02,16.938v1.3h1.16c3.8,0,7.594-.01,11.391,0a7.281,7.281,0,0,1,7.652,7.564q.06,12.828,0,25.655a7.282,7.282,0,0,1-6.249,7.506,7.2,7.2,0,0,1-8-4.856,10.161,10.161,0,0,1-.413-3.015c-.038-5.613-.018-11.226-.019-16.839V157.9M30.116,137.427q0,6.193,0,12.386,0,5.313,5.279,5.315c4.393,0,8.786,0,13.179,0,1.291,0,1.714.434,1.755,1.722.008.264,0,.528,0,.793q0,9.265-.006,18.529a5.014,5.014,0,0,0,1.1,3.5,4.519,4.519,0,0,0,5.034,1.311,4.594,4.594,0,0,0,3.011-4.654q.015-12.634,0-25.267c0-3.259-1.835-5.065-5.114-5.068q-6.49-.006-12.981,0c-1.733,0-2.115-.375-2.118-2.071q-.006-2.973,0-5.945c0-4.459.014-8.918-.007-13.377a4.6,4.6,0,0,0-3.468-4.715,4.524,4.524,0,0,0-5.653,4.557c-.043,4.326-.011,8.653-.013,12.98" transform="translate(-1978.087 5469.528)" fill="#0d4d75" stroke="#fff" stroke-width="2"/>
      <path id="Path_31168" data-name="Path 31168" d="M244.235,143.433v-1.287c0-5.746-.016-11.493.007-17.239a7.336,7.336,0,0,1,14.641-.92c.03.428.041.858.042,1.287,0,8.256-.091,16.513.037,24.768a7.647,7.647,0,0,1-8.108,8.092c-3.63-.107-7.265-.021-10.9-.021h-1.239v1.21c0,5.746.016,11.492-.007,17.238a7.328,7.328,0,0,1-14.588,1.3,9.649,9.649,0,0,1-.094-1.184c-.005-8.553-.022-17.107,0-25.66a7.286,7.286,0,0,1,5.773-7.411,9.192,9.192,0,0,1,1.966-.165c3.765-.015,7.529-.007,11.294-.007Zm11.916-5.745h0c0-2.675.005-5.351,0-8.026-.005-1.882.065-3.771-.065-5.645a4.447,4.447,0,0,0-5.256-3.978,4.552,4.552,0,0,0-3.813,4.819c-.015,6.407,0,12.815-.006,19.222,0,1.762-.371,2.125-2.165,2.126q-6.441,0-12.881,0c-3.393,0-5.166,1.786-5.167,5.212q-.005,12.435,0,24.87a8.61,8.61,0,0,0,.129,1.575,4.523,4.523,0,0,0,5.254,3.536c2.361-.46,3.744-2.221,3.75-4.861.014-6.441,0-12.881.008-19.322,0-1.48.412-1.877,1.892-1.879q6.54-.007,13.079,0c3.444,0,5.229-1.8,5.233-5.264q.007-6.193,0-12.386" transform="translate(-2122.703 5469.318)" fill="#0d4d75" stroke="#fff" stroke-width="2"/>
      <path id="Path_31169" data-name="Path 31169" d="M118.35,39.088c-2.858,0-5.561-.008-8.264.005-.759,0-1.487-.032-1.821-.858s.137-1.371.664-1.918c1.1-1.142,2.21-2.275,3.239-3.478a2.477,2.477,0,0,0,.573-1.463c.042-5.018.023-10.036.027-15.054,0-1.587.413-2.007,1.976-2.008q12.727,0,25.454,0c1.519,0,1.958.438,1.964,1.924,0,1.079,0,2.159,0,3.351h5.53a23.623,23.623,0,0,1,2.967.035,2.419,2.419,0,0,1,1.534.786c.428.589.061,1.243-.437,1.763-1.164,1.216-2.339,2.424-3.443,3.694a2.31,2.31,0,0,0-.542,1.377c-.038,5.018-.022,10.036-.025,15.054,0,1.665-.379,2.048-2.032,2.048q-12.677,0-25.355,0c-1.605,0-2-.4-2.008-1.974,0-1.05,0-2.1,0-3.285m20.978-2.813V17.148H115.54v1.124c0,4.525-.027,9.051.02,13.575a3.216,3.216,0,0,1-1.065,2.633c-.567.513-1.051,1.118-1.676,1.794ZM142.161,22.4V23.56q0,6.734,0,13.469c0,1.714-.351,2.058-2.1,2.058H121.18v2.429h23.792V40.4c0-4.622.014-9.243-.013-13.865a2.7,2.7,0,0,1,.851-2.117c.621-.6,1.178-1.256,1.887-2.021Z" transform="translate(-2037.516 5545)" fill="#f9bb19" stroke="#fff" stroke-width="2"/>
      <path id="Path_31170" data-name="Path 31170" d="M130.205,162.93q-10.058,0-20.117,0c-1.629,0-2.038-.411-2.042-2.056q-.008-3.022,0-6.045c.007-1.463.452-1.937,1.874-1.937q20.265-.009,40.53,0c1.374,0,1.835.479,1.844,1.869q.02,3.171,0,6.342c-.01,1.37-.485,1.825-1.874,1.826q-10.108.006-20.216,0m19.266-7.185h-38.6V160.1h38.6Z" transform="translate(-2037.433 5443.117)" fill="#0d4d75" stroke="#fff" stroke-width="2"/>
      <path id="Path_31171" data-name="Path 31171" d="M297.736,29.175a10.969,10.969,0,1,1-11.02,10.811,11.008,11.008,0,0,1,11.02-10.811m.031,2.773a8.2,8.2,0,1,0,8.129,8.166,8.2,8.2,0,0,0-8.129-8.166" transform="translate(-2168.799 5534.073)" fill="#0d4d75" stroke="#fff" stroke-width="2"/>
      <path id="Path_31172" data-name="Path 31172" d="M24.651,29.686A10.95,10.95,0,1,1,13.6,40.569,10.962,10.962,0,0,1,24.651,29.686m-.069,2.776a8.175,8.175,0,1,0,8.2,8.17,8.194,8.194,0,0,0-8.2-8.17" transform="translate(-1968 5533.697)" fill="#0d4d75" stroke="#fff" stroke-width="2"/>
      <path id="Path_31179" data-name="Path 31179" d="M158.623,46.365c-2.147,0-4.293.009-6.44,0-1.068-.006-1.69-.543-1.671-1.393.018-.807.624-1.363,1.627-1.368q6.489-.027,12.979,0a1.434,1.434,0,0,1,1.581,1.42c-.017.8-.639,1.331-1.636,1.337-2.147.014-4.293,0-6.44,0" transform="translate(-2068.659 5523.477)" fill="#f9bb19" stroke="#fff" stroke-width="2"/>
      <path id="Path_31180" data-name="Path 31180" d="M158.6,70.912c-2.108,0-4.217.006-6.325,0-1.115,0-1.779-.547-1.76-1.411.019-.831.66-1.356,1.719-1.358q6.375-.011,12.75,0c1.061,0,1.7.53,1.714,1.366.015.866-.645,1.4-1.771,1.4-2.108.007-4.217,0-6.325,0" transform="translate(-2068.66 5505.428)" fill="#f9bb19" stroke="#fff" stroke-width="2"/>
    </g>
  </g>
</svg>