<svg xmlns="http://www.w3.org/2000/svg" width="100" height="100" viewBox="0 0 100 100">
  <g id="Group_20382" data-name="Group 20382" transform="translate(-9 -290)">
    <g id="Rectangle_6045" data-name="Rectangle 6045" transform="translate(9 290)" fill="#fff" stroke="#707070" stroke-width="1" opacity="0">
      <rect width="100" height="100" stroke="none"/>
      <rect x="0.5" y="0.5" width="99" height="99" fill="none"/>
    </g>
    <g id="Group_20381" data-name="Group 20381" transform="translate(5500.197 6753.688)">
      <path id="Path_32970" data-name="Path 32970" d="M104.349,210.584v-2.94h3.038v2.921h3.072v-5.994H113.5V210.5c3.013.661,4.793-1.066,4.651-3.7-.143-2.667-.027-5.348-.033-8.023a3.1,3.1,0,0,0-3.441-3.42q-11.463-.006-22.925,0H90.662v-3.057h.97q11.51,0,23.021,0a6.117,6.117,0,0,1,6.52,6.513q.009,4.251,0,8.5a6.1,6.1,0,0,1-6.364,6.381q-30.328.01-60.656,0a6.091,6.091,0,0,1-6.339-6.308q-.021-4.395,0-8.789a6.094,6.094,0,0,1,6.253-6.3c2.96-.016,5.919,0,8.953,0v3.057H60.3c-2.07,0-4.139-.012-6.209,0a3.065,3.065,0,0,0-3.224,3.249c-.014,2.8,0,5.6,0,8.407,0,2.466,1.166,3.631,3.619,3.626h.949v-6.065h3.037v6.007h3.072v-2.931h3.038v2.912h3.072v-2.928h3.038v2.943h3.072V204.6h3.072v6h3.038v-2.954h3.038v2.936h3.072v-2.917h3.072v2.932H92.1v-6h3.072v5.985h3.038v-2.91h3.072v2.925Z" transform="translate(-5534 -6605.845)" fill="#0d4d75" stroke="#fff" stroke-width="2.4"/>
      <path id="Path_32971" data-name="Path 32971" d="M141.721,55.39c-.962,0-1.786,0-2.611,0a4.26,4.26,0,0,1-.446-.057V54.18q0-15.907,0-31.813c0-4.224-2.487-6.717-6.7-6.717q-16.239,0-32.478,0c-4.15,0-6.671,2.511-6.675,6.644,0,.794,0,1.588,0,2.487h42.735v3.072h-42.7V55.334H89.755v-.963q0-16.1,0-32.195c0-5.66,3.946-9.581,9.631-9.583q16.334-.007,32.668,0c5.749,0,9.66,3.9,9.663,9.647q.008,16.05,0,32.1Z" transform="translate(-5565.246 -6472)" fill="#0d4d75" stroke="#fff" stroke-width="2.4"/>
      <path id="Path_32972" data-name="Path 32972" d="M147.854,99a4.779,4.779,0,0,1-1.665,3.426q-9.9,9.876-19.785,19.772a5.054,5.054,0,0,0-.47.475,12.342,12.342,0,0,1-8.245,4.742c-2.562.418-5.06,1.221-7.59,1.84-1.585.388-2.48-.506-2.089-2.089.938-3.793,1.868-7.589,2.855-11.37a3.721,3.721,0,0,1,.914-1.612q11.545-11.608,23.139-23.168c2.2-2.2,4.844-2.19,7.068.012q2.2,2.183,4.386,4.389A4.612,4.612,0,0,1,147.854,99m-30.98,18.806L134.389,100.3l-1.962-2.148-17.592,17.6,2.039,2.064m4.6,4.6,17.521-17.525-2.009-2.14L119.4,120.336l2.074,2.072m13.119-26.777,7.008,7c.9-.9,1.9-1.82,2.82-2.822a1.4,1.4,0,0,0-.069-2.063q-2.4-2.457-4.859-4.852a1.459,1.459,0,0,0-2.137.034c-.948.89-1.861,1.817-2.762,2.7M118.409,124.04l-5.179-5.191-1.721,6.915,6.9-1.724" transform="translate(-5578.777 -6529.188)" fill="#f9bb19" stroke="#fff" stroke-width="2.4"/>
      <path id="Path_32973" data-name="Path 32973" d="M138.663,294.394H95.918v-3h42.727v-3.049h3.074v.9c0,3.63.007,7.26,0,10.89a9.169,9.169,0,0,1-9.564,9.556q-16.429.011-32.858,0a9.176,9.176,0,0,1-9.541-9.579q-.009-5.4,0-10.795v-.976H92.81v1q0,5.4,0,10.795a6.114,6.114,0,0,0,6.441,6.494q16.477.01,32.954,0a6.117,6.117,0,0,0,6.455-6.482c.006-1.874,0-3.748,0-5.759" transform="translate(-5565.245 -6677.387)" fill="#0d4d75" stroke="#fff" stroke-width="2.4"/>
      <path id="Path_32974" data-name="Path 32974" d="M178.131,327.292a4.581,4.581,0,1,1,4.662-4.447,4.607,4.607,0,0,1-4.662,4.447m1.6-4.54a1.522,1.522,0,1,0-1.54,1.48,1.542,1.542,0,0,0,1.54-1.48" transform="translate(-5627.721 -6699.574)" fill="#0d4d75" stroke="#fff" stroke-width="2.4"/>
      <rect id="Rectangle_6057" data-name="Rectangle 6057" width="9.05" height="2.947" transform="translate(-5454.046 -6453.247)" fill="#0d4d75" stroke="#fff" stroke-width="2.4"/>
      <rect id="Rectangle_6058" data-name="Rectangle 6058" width="2.939" height="2.957" transform="translate(-5441.799 -6453.235)" fill="#0d4d75" stroke="#fff" stroke-width="2.4"/>
    </g>
  </g>
</svg>
