<svg id="Layer_1" data-name="Layer 1" xmlns="http://www.w3.org/2000/svg" xmlns:xlink="http://www.w3.org/1999/xlink" viewBox="0 0 541.29 430.71"><defs><style>.cls-1{fill:url(#linear-gradient);}.cls-2{fill:url(#linear-gradient-2);}.cls-3{fill:url(#linear-gradient-3);}.cls-4{fill:url(#linear-gradient-4);}.cls-5{fill:url(#linear-gradient-5);}.cls-6{fill:url(#linear-gradient-6);}.cls-7{fill:#808285;}.cls-8{fill:url(#linear-gradient-7);}.cls-9{fill:url(#linear-gradient-8);}</style><linearGradient id="linear-gradient" x1="135.58" y1="273.95" x2="378.73" y2="316.26" gradientUnits="userSpaceOnUse"><stop offset="0" stop-color="#450bad"/><stop offset="1" stop-color="#d53cff"/></linearGradient><linearGradient id="linear-gradient-2" x1="140.8" y1="243.94" x2="383.95" y2="286.25" xlink:href="#linear-gradient"/><linearGradient id="linear-gradient-3" x1="136.59" y1="268.1" x2="379.75" y2="310.42" xlink:href="#linear-gradient"/><linearGradient id="linear-gradient-4" x1="139.82" y1="249.56" x2="382.97" y2="291.87" xlink:href="#linear-gradient"/><linearGradient id="linear-gradient-5" x1="140.69" y1="244.59" x2="383.84" y2="286.91" xlink:href="#linear-gradient"/><linearGradient id="linear-gradient-6" x1="141.77" y1="238.39" x2="384.92" y2="280.7" xlink:href="#linear-gradient"/><linearGradient id="linear-gradient-7" x1="223.78" y1="163.73" x2="321.05" y2="163.73" xlink:href="#linear-gradient"/><linearGradient id="linear-gradient-8" x1="213.26" y1="163.73" x2="329.57" y2="163.73" xlink:href="#linear-gradient"/></defs><path class="cls-1" d="M188.59,301.08c1.83-4.07,3.41-7.8,5.18-11.43a222.29,222.29,0,0,1,22.54-37.09,86.58,86.58,0,0,1,6.06-7.05,19.86,19.86,0,0,1,3.32-2.32l.56.52a17.43,17.43,0,0,1-1.11,2.15c-5.12,7.24-10.55,14.28-15.32,21.74-4,6.21-7.31,12.84-10.69,19.4-2.83,5.52-5.27,11.24-8,16.81-.51,1.05-1.69,2.64-2.33,2.54A4.64,4.64,0,0,1,186,304a39.44,39.44,0,0,1-3.06-7.58c-2.16-8.06-4.08-16.19-6.12-24.28-.23-.9-.59-1.76-1.13-3.34-3.21,5.14-6.3,9.65-8.92,14.41C162,291.8,157.52,300.55,153,309.3c-1.62,3.15-3,6.42-4.38,9.69a4.42,4.42,0,0,1-4.1,2.84c-1.41.12-2-.48-1.62-1.81a48.37,48.37,0,0,1,2-5.4,487.41,487.41,0,0,1,26.85-52c.94-1.57,1.71-3,4-2.85,3.66.28,3.75.19,4.21,3.9a211.6,211.6,0,0,0,7.85,35C188,299.34,188.23,300,188.59,301.08Z"/><path class="cls-2" d="M322.8,290.76c-1.5,1.07-2.61,1.88-3.75,2.65a10.77,10.77,0,0,1-2.83,1.73c-1.63.43-3.55,1-5,.48-.69-.26-.84-2.88-.66-4.37.35-3.05,1.09-6.06,1.77-9.64-2.34,1.57-10.54,9.13-14.3,12.59-.56.52-.89,1.24-1.52,1.68s-1.94,1-2.71.51a1.2,1.2,0,0,1-.43-.56,3.28,3.28,0,0,1-.18-1.39,11.25,11.25,0,0,1,.59-2.42,31.56,31.56,0,0,1,1.94-4.71c-1.5.84-4.11,2.35-5.33,2.9q-2.82,1.26-5.66,2.48a63.31,63.31,0,0,1-6.09,2.56c-2.75.86-7,.38-7.25-3.25a7,7,0,0,1,.42-2.63,19.86,19.86,0,0,1,10-11.37,12.88,12.88,0,0,1,4.79-1.33,3.19,3.19,0,0,1,2.42,1.48c.28.51-.26,1.85-.84,2.39a90.66,90.66,0,0,1-7,6.18,8.57,8.57,0,0,1-2.75,1.63,2.67,2.67,0,0,1-2.38-.52c-.73,1.67-.67,1.53-1,2.29a2.2,2.2,0,0,0-.08,2,1.68,1.68,0,0,0,.9.69c2.11.71,4.52-.92,6.36-1.73,3.69-1.62,7.36-3.28,11-5.08.88-.43,1.75-.88,2.61-1.33,1.36-.72,2.15-2.89,2.77-4.55.54-1.47,1.15-2.58,2.76-2.06,1.82.58,1.23,1.92.68,3.26a30.36,30.36,0,0,0-1.88,6.57c.78-.67,1.54-1.38,2.35-2,2.84-2.22,5.61-4.58,8.62-6.56a4.84,4.84,0,0,1,3.85-.21c1.62.64.78,2.24.54,3.52-.63,3.39-1.23,6.79-2,10.92,2-.89,3.29-1.42,4.55-2.07,1.5-.78,3-1.64,4.4-2.52a2.35,2.35,0,0,0,1-1.08c1.67-5.18,3.28-10.39,5.1-16.2l-8.34,2.9c-.34-2.19.37-3.29,2.22-3.66a.78.78,0,0,1,.22,0c5.32,0,8-2.88,9.44-7.88,1-3.66,3-7.06,4.42-10.63a2.85,2.85,0,0,1,3.27-2c1.57.13,2.33.73,1.52,2.47-2,4.23-3.83,8.49-5.73,12.74-.3.66-.57,1.33-.94,2.2,4.1,0,8-1.33,11.9-.42l0,.87A23.34,23.34,0,0,1,344,269c-3,.48-6,.8-9,1.4a3,3,0,0,0-2,1.74c-2.54,7.31-5,14.66-7.38,22-.41,1.26-.53,2.62-1.06,3.82-.29.66-1.15,1.07-1.75,1.59a6,6,0,0,1-.81-2.2C322.12,295.31,322.48,293.28,322.8,290.76Zm-44.95-5.38c-.17.33-.29.71-.14.89,2.69-2.28,6-4.92,8.67-7.19C283.18,279.27,279.4,282.39,277.85,285.38Z"/><path class="cls-3" d="M256.75,292.05a11.63,11.63,0,0,0,2.71-1.18q4.13-3.35,8.06-6.9c1.8-1.64,3.43-3.47,5.22-5.14a13.69,13.69,0,0,1,2.26-1.42l.51.48a12.85,12.85,0,0,1-1.45,2.75c-3.9,4.45-7.88,8.83-11.85,13.22a9.29,9.29,0,0,1-1.7,1.42c-1.6,1.09-3.33,2.35-5.29,1.12a5.16,5.16,0,0,1-2.15-5.68,71.21,71.21,0,0,1,2.27-7.14c.15-.48.25-1,.55-2.13-3.25.67-6.1,1.24-8.94,1.89a1.4,1.4,0,0,0-.72,1c-.82,4.71-3.76,8-7.52,10.5a10.37,10.37,0,0,1-5,1.51c-2.79.17-4.69-2.09-4.45-4.89.1-1.16.38-2.3.6-3.59-4.15,2.1-8.08,4.27-12.17,6.07a21.15,21.15,0,0,1-6.82,1.69c-3.6.26-5.29-2-4.58-5.53,1-5.19,8.26-12.52,13.41-13.46a5.27,5.27,0,0,1,3,.39c1.26.6,2,1.73.7,3-3.29,3.37-6.34,7.08-11.55,7.58-1.6.15-3.23,3.65-2.21,4.82a3.21,3.21,0,0,0,2.71.59,42,42,0,0,0,6.88-2.43,118,118,0,0,0,11.23-5.81c1.63-1,2.79-2.77,4.06-4.28a6.54,6.54,0,0,1,9-1.24,4.81,4.81,0,0,0,2.73.64c3.32-.12,6.64-.65,9.94-.56,2.84.08,4,1.07,2.59,4.28a82.56,82.56,0,0,0-2.7,7.9Zm-23.91,1.15.9.34c4.95-1.89,7.25-5.93,8.42-10.78a2.29,2.29,0,0,0-1.09-2,3.07,3.07,0,0,0-2.62.58,38.14,38.14,0,0,0-4,6.38A34.15,34.15,0,0,0,232.84,293.2Zm-20.18-8c-.18.33-.3.72-.15.89,2.69-2.27,6-4.91,8.67-7.19C218,279.12,214.2,282.23,212.66,285.22Z"/><path class="cls-4" d="M374,278a19.37,19.37,0,0,1-1.75,3q-5.31,6.11-10.78,12.1a16.76,16.76,0,0,1-2.87,2.44c-1.48,1-3.11,2-4.93.91s-2.25-3.19-2.28-5.23a25.65,25.65,0,0,1,.42-3.06c-4.16,2.61-7.72,5-11.41,7.1a9.3,9.3,0,0,1-4.35,1.21c-2.12,0-3-1.31-2.26-3.25,1.73-4.24,3.66-8.39,5.7-12.48.33-.65,1.65-.8,2.51-1.19.32,1,1.15,2.12.87,2.85-.84,2.19-2.14,4.2-3.2,6.31-.47.94-.77,1.95-1.39,3.54,1.49-.48,2.32-.67,3.09-1,3.27-1.39,6.57-2.72,9.74-4.31a7.32,7.32,0,0,0,2.38-2.63c.69-1,1-2.3,1.75-3.28a2,2,0,0,1,1.86-.15,1.92,1.92,0,0,1,.54,1.74c-1,3-2.07,5.95-3.36,9.56,1.45-.43,2.37-.48,3-.94a89.83,89.83,0,0,0,7.13-5.58c2.36-2.13,4.45-4.55,6.73-6.77a13.41,13.41,0,0,1,2.26-1.45Z"/><path class="cls-5" d="M398.48,283.38a12,12,0,0,1-1.82,2c-6.3,4.29-12.75,8.32-20.29,10.14a7.68,7.68,0,0,1-2,.14c-3.55-.07-5.36-2.33-4.3-5.74a19.74,19.74,0,0,1,11-12.33,9,9,0,0,1,4.41-.86c2.56.22,3.1,1.88,1.23,3.64a86.83,86.83,0,0,1-7.42,6.24c-.81.62-2.11.55-3.12.95-.82.33-1.93.73-2.22,1.4a5.85,5.85,0,0,0-.26.84,2.49,2.49,0,0,0,2.87,3,2.3,2.3,0,0,0,.34-.12c6.33-2.8,12.59-5.78,18.87-8.7l2.28-1.09Zm-22.56,2.06.41.48,7.33-6.3C380.75,279.81,377.32,282.68,375.92,285.44Z"/><path class="cls-6" d="M346.58,272.55c-1.28,1.19-2.55,2.39-3.89,3.52-.07.06-1-.54-1.08-.93-.3-1.4,1.29-3.93,2.67-4.15.65-.11,1.39.38,2.09.6Z"/><path class="cls-7" d="M166.7,324.91v-13.3h5.14a7.8,7.8,0,0,1,3.5.71,4.9,4.9,0,0,1,2.24,2.17,9.37,9.37,0,0,1,0,7.53,4.92,4.92,0,0,1-2.24,2.18,7.94,7.94,0,0,1-3.5.71Zm2.17-1.86h2.95a5.5,5.5,0,0,0,1.83-.28,3.27,3.27,0,0,0,1.35-.83,3.58,3.58,0,0,0,.84-1.42,6.6,6.6,0,0,0,.28-2v-.41a6.58,6.58,0,0,0-.28-2.06,3.62,3.62,0,0,0-.84-1.43,3.38,3.38,0,0,0-1.35-.83,5.77,5.77,0,0,0-1.83-.27h-2.95Z"/><path class="cls-7" d="M204.13,324.91v-13.3h2.17v13.3Z"/><path class="cls-7" d="M238.73,325.14a6.64,6.64,0,0,1-4.85-1.67q-1.69-1.67-1.7-5.21a8.26,8.26,0,0,1,.8-3.85,5.17,5.17,0,0,1,2.3-2.28,8.26,8.26,0,0,1,3.69-.75,9.26,9.26,0,0,1,2.41.29,6.15,6.15,0,0,1,2,.88,4.1,4.1,0,0,1,1.3,1.48,4.67,4.67,0,0,1,.45,2.12h-2.21a2.67,2.67,0,0,0-.3-1.31,2.62,2.62,0,0,0-.83-.92,3.57,3.57,0,0,0-1.24-.54,6.66,6.66,0,0,0-1.51-.16,5.94,5.94,0,0,0-2,.29,3.52,3.52,0,0,0-1.45.89,3.87,3.87,0,0,0-.87,1.51,7.26,7.26,0,0,0-.29,2.15v.41a6.61,6.61,0,0,0,.49,2.77,3.17,3.17,0,0,0,1.48,1.56,5.25,5.25,0,0,0,2.39.5,5.74,5.74,0,0,0,2.25-.39,3,3,0,0,0,1.4-1.15,3.54,3.54,0,0,0,.48-1.91v-.2h-4.48v-1.8h6.65v7.06h-1.57l-.21-1.59a4.67,4.67,0,0,1-1.24,1,5.74,5.74,0,0,1-1.52.6A8.55,8.55,0,0,1,238.73,325.14Z"/><path class="cls-7" d="M271.38,324.91v-13.3h2.17v13.3Z"/><path class="cls-7" d="M303.21,324.91V313.47h-4.4v-1.86h11v1.86h-4.44v11.44Z"/><path class="cls-7" d="M332,324.91l5.21-13.3h2.77l5.24,13.3h-2.33l-1.18-3.09h-6.3l-1.18,3.09Zm4.11-4.93H341l-1.49-3.89c0-.12-.1-.28-.18-.49l-.24-.68c-.08-.24-.17-.49-.25-.74s-.16-.48-.22-.69h-.12c-.08.25-.17.54-.29.87l-.34,1c-.11.31-.2.56-.28.76Z"/><path class="cls-7" d="M370.15,324.91v-13.3h2.17V323H379v1.88Z"/><path class="cls-8" d="M225.79,174.56a2,2,0,0,1-1.82-2.88l7.28-17.63a1.85,1.85,0,1,1,3.43,1.41l-3.57,8.63c3.69-3.92,7.08-6.93,9.73-7.41a4,4,0,0,1,3.66,1c2.08,2,1.46,6.09,1.06,8.79-.07.44-.13.82-.16,1.1a1.83,1.83,0,0,0,.37,1.61,2.23,2.23,0,0,0,2-.11,22.57,22.57,0,0,0,6.31-4.41c.64-.59,1.24-1.23,1.87-1.9a18.58,18.58,0,0,1,5.19-4.33,18,18,0,0,1,5.27-1.65c4.95-.8,10.6,0,17.27,2.53.84.32,1.68.65,2.5,1,20.87,8.84,27.86,7.16,31.95,4.35a1.85,1.85,0,1,1,2.1,3.05c-5.16,3.55-13,5.52-35.49-4-.78-.33-1.57-.65-2.36-.94-6.06-2.27-11.09-3-15.39-2.35a14.11,14.11,0,0,0-4.18,1.3,15.64,15.64,0,0,0-4.15,3.55c-.65.69-1.32,1.41-2.06,2.1a26.06,26.06,0,0,1-7.42,5.11,5.71,5.71,0,0,1-5.64-.35c-.81-.6-2.12-2.05-1.84-5,0-.33.1-.77.18-1.28.61-4.06.35-5.28,0-5.58h-.11a1.36,1.36,0,0,0-.31,0c-2.7.49-9.19,7.89-12,11-1,1.12-1.75,2-2.3,2.57A2,2,0,0,1,225.79,174.56Zm1.63-1.51-.06.13Z"/><path class="cls-9" d="M329.57,221.89H213.26V105.57H329.57ZM217,218.18h108.9V109.28H217Z"/></svg>